<?xml version="1.0" encoding="UTF-8"?>
<svg version="1.1" xmlns="http://www.w3.org/2000/svg" width="500" height="500">
<path d="M0 0 C1.15790039 -0.00315216 2.31580078 -0.00630432 3.50878906 -0.009552 C5.39936035 -0.00651566 5.39936035 -0.00651566 7.328125 -0.00341797 C8.61170898 -0.00437469 9.89529297 -0.00533142 11.21777344 -0.00631714 C13.93816324 -0.00779378 16.65852025 -0.00564066 19.37890625 -0.00097656 C22.87297169 0.00472073 26.36696033 0.00144154 29.86102295 -0.00454903 C33.18339653 -0.00902301 36.50574923 -0.00589432 39.828125 -0.00341797 C41.08850586 -0.0054422 42.34888672 -0.00746643 43.64746094 -0.009552 C44.80536133 -0.00639984 45.96326172 -0.00324768 47.15625 0 C48.18137695 0.00079559 49.20650391 0.00159119 50.26269531 0.00241089 C52.578125 0.12939453 52.578125 0.12939453 53.578125 1.12939453 C53.66444374 2.47206866 53.68518973 3.81913775 53.67578125 5.16455078 C53.67255859 5.9734375 53.66933594 6.78232422 53.66601562 7.61572266 C53.65763672 8.46585938 53.64925781 9.31599609 53.640625 10.19189453 C53.63611328 11.04589844 53.63160156 11.89990234 53.62695312 12.77978516 C53.61512873 14.89635117 53.59719269 17.01288138 53.578125 19.12939453 C55.38410156 19.11199219 55.38410156 19.11199219 57.2265625 19.09423828 C58.80208179 19.08486019 60.37760275 19.07576001 61.953125 19.06689453 C62.7471875 19.05851562 63.54125 19.05013672 64.359375 19.04150391 C70.3515625 19.01611328 70.3515625 19.01611328 72.578125 20.12939453 C72.578125 26.39939453 72.578125 32.66939453 72.578125 39.12939453 C78.188125 39.12939453 83.798125 39.12939453 89.578125 39.12939453 C89.578125 32.85939453 89.578125 26.58939453 89.578125 20.12939453 C93.34112874 18.87505995 96.85023409 19.02244031 100.765625 19.06689453 C101.51521484 19.07140625 102.26480469 19.07591797 103.03710938 19.08056641 C104.88414883 19.09233099 106.73114713 19.11026588 108.578125 19.12939453 C108.56652344 17.84162109 108.55492187 16.55384766 108.54296875 15.22705078 C108.5335923 13.54866681 108.52449195 11.87028127 108.515625 10.19189453 C108.50724609 9.34175781 108.49886719 8.49162109 108.49023438 7.61572266 C108.48701172 6.80683594 108.48378906 5.99794922 108.48046875 5.16455078 C108.47523193 4.41568604 108.46999512 3.66682129 108.46459961 2.89526367 C108.578125 1.12939453 108.578125 1.12939453 109.578125 0.12939453 C111.38321873 0.03039892 113.19219428 0.00140302 115 0 C116.15790039 -0.00315216 117.31580078 -0.00630432 118.50878906 -0.009552 C120.39936035 -0.00651566 120.39936035 -0.00651566 122.328125 -0.00341797 C123.61170898 -0.00437469 124.89529297 -0.00533142 126.21777344 -0.00631714 C128.93816324 -0.00779378 131.65852025 -0.00564066 134.37890625 -0.00097656 C137.87297169 0.00472073 141.36696033 0.00144154 144.86102295 -0.00454903 C148.18339653 -0.00902301 151.50574923 -0.00589432 154.828125 -0.00341797 C156.08850586 -0.0054422 157.34888672 -0.00746643 158.64746094 -0.009552 C159.80536133 -0.00639984 160.96326172 -0.00324768 162.15625 0 C163.18137695 0.00079559 164.20650391 0.00159119 165.26269531 0.00241089 C167.578125 0.12939453 167.578125 0.12939453 168.578125 1.12939453 C168.66444374 2.47206866 168.68518973 3.81913775 168.67578125 5.16455078 C168.67255859 5.9734375 168.66933594 6.78232422 168.66601562 7.61572266 C168.65763672 8.46585938 168.64925781 9.31599609 168.640625 10.19189453 C168.63611328 11.04589844 168.63160156 11.89990234 168.62695312 12.77978516 C168.61512873 14.89635117 168.59719269 17.01288138 168.578125 19.12939453 C169.65819824 19.12415771 170.73827148 19.1189209 171.85107422 19.11352539 C175.85041478 19.09545345 179.84975172 19.08395446 183.84912109 19.07446289 C185.58154914 19.06942771 187.31397292 19.06259921 189.04638672 19.05395508 C191.53353933 19.04185388 194.02063587 19.03615815 196.5078125 19.03173828 C197.28494598 19.026577 198.06207947 19.02141571 198.86276245 19.01609802 C204.35038159 19.01552282 204.35038159 19.01552282 206.578125 20.12939453 C206.578125 26.39939453 206.578125 32.66939453 206.578125 39.12939453 C212.848125 39.12939453 219.118125 39.12939453 225.578125 39.12939453 C225.578125 52.32939453 225.578125 65.52939453 225.578125 79.12939453 C219.308125 79.12939453 213.038125 79.12939453 206.578125 79.12939453 C206.578125 91.00939453 206.578125 102.88939453 206.578125 115.12939453 C212.518125 115.12939453 218.458125 115.12939453 224.578125 115.12939453 C225.578125 116.12939453 225.578125 116.12939453 225.69165039 117.89526367 C225.68641357 118.64412842 225.68117676 119.39299316 225.67578125 120.16455078 C225.67255859 120.9734375 225.66933594 121.78232422 225.66601562 122.61572266 C225.65763672 123.46585937 225.64925781 124.31599609 225.640625 125.19189453 C225.63611328 126.04589844 225.63160156 126.89990234 225.62695312 127.77978516 C225.61512873 129.89635117 225.59719269 132.01288138 225.578125 134.12939453 C226.86589844 134.11779297 228.15367187 134.10619141 229.48046875 134.09423828 C231.15885272 134.08486183 232.83723826 134.07576148 234.515625 134.06689453 C235.36576172 134.05851563 236.21589844 134.05013672 237.09179688 134.04150391 C237.90068359 134.03828125 238.70957031 134.03505859 239.54296875 134.03173828 C240.2918335 134.02650146 241.04069824 134.02126465 241.81225586 134.01586914 C243.578125 134.12939453 243.578125 134.12939453 244.578125 135.12939453 C244.67193802 136.97057483 244.69556454 138.81537094 244.69165039 140.65893555 C244.69157486 141.84008438 244.69149933 143.02123322 244.69142151 144.23817444 C244.68626022 145.52356613 244.68109894 146.80895782 244.67578125 148.13330078 C244.67365883 150.09552834 244.67365883 150.09552834 244.67149353 152.09739685 C244.6676691 155.58102312 244.65783946 159.06460793 244.64678955 162.54821777 C244.63657382 166.10066161 244.63199556 169.65311213 244.62695312 173.20556641 C244.61621712 180.18019457 244.59862093 187.15478829 244.578125 194.12939453 C238.308125 194.12939453 232.038125 194.12939453 225.578125 194.12939453 C225.578125 200.39939453 225.578125 206.66939453 225.578125 213.12939453 C219.308125 213.12939453 213.038125 213.12939453 206.578125 213.12939453 C206.578125 219.39939453 206.578125 225.66939453 206.578125 232.12939453 C181.168125 232.12939453 155.758125 232.12939453 129.578125 232.12939453 C129.578125 238.39939453 129.578125 244.66939453 129.578125 251.12939453 C123.308125 251.12939453 117.038125 251.12939453 110.578125 251.12939453 C110.578125 257.39939453 110.578125 263.66939453 110.578125 270.12939453 C78.238125 270.12939453 45.898125 270.12939453 12.578125 270.12939453 C12.578125 263.85939453 12.578125 257.58939453 12.578125 251.12939453 C6.308125 251.12939453 0.038125 251.12939453 -6.421875 251.12939453 C-6.751875 245.18939453 -7.081875 239.24939453 -7.421875 233.12939453 C-13.361875 232.79939453 -19.301875 232.46939453 -25.421875 232.12939453 C-25.421875 225.85939453 -25.421875 219.58939453 -25.421875 213.12939453 C-37.961875 213.12939453 -50.501875 213.12939453 -63.421875 213.12939453 C-63.421875 206.85939453 -63.421875 200.58939453 -63.421875 194.12939453 C-75.961875 194.12939453 -88.501875 194.12939453 -101.421875 194.12939453 C-101.421875 187.85939453 -101.421875 181.58939453 -101.421875 175.12939453 C-108.021875 175.12939453 -114.621875 175.12939453 -121.421875 175.12939453 C-121.421875 168.85939453 -121.421875 162.58939453 -121.421875 156.12939453 C-127.30070503 156.16897223 -127.30070503 156.16897223 -133.17944336 156.21948242 C-133.90784424 156.22197998 -134.63624512 156.22447754 -135.38671875 156.22705078 C-136.1355835 156.2322876 -136.88444824 156.23752441 -137.65600586 156.24291992 C-139.421875 156.12939453 -139.421875 156.12939453 -140.421875 155.12939453 C-140.52294374 152.25675397 -140.56157172 149.40865825 -140.5546875 146.53564453 C-140.55564423 145.6737854 -140.55660095 144.81192627 -140.55758667 143.9239502 C-140.5582685 142.09806241 -140.55641404 140.27217222 -140.55224609 138.44628906 C-140.54689786 135.64138375 -140.55219099 132.83663858 -140.55859375 130.03173828 C-140.55793297 128.26220668 -140.55665181 126.49267517 -140.5546875 124.72314453 C-140.55772385 123.45597595 -140.55772385 123.45597595 -140.56082153 122.16320801 C-140.53682531 116.24434484 -140.53682531 116.24434484 -139.421875 115.12939453 C-138.07920087 115.04307579 -136.73213178 115.0223298 -135.38671875 115.03173828 C-134.57783203 115.03496094 -133.76894531 115.03818359 -132.93554688 115.04150391 C-132.08541016 115.04988281 -131.23527344 115.05826172 -130.359375 115.06689453 C-129.50537109 115.07140625 -128.65136719 115.07591797 -127.77148438 115.08056641 C-125.65491837 115.0923908 -123.53838815 115.11032685 -121.421875 115.12939453 C-121.43347656 113.84162109 -121.44507812 112.55384766 -121.45703125 111.22705078 C-121.4664077 109.54866681 -121.47550805 107.87028127 -121.484375 106.19189453 C-121.49275391 105.34175781 -121.50113281 104.49162109 -121.50976562 103.61572266 C-121.51459961 102.40239258 -121.51459961 102.40239258 -121.51953125 101.16455078 C-121.52738647 100.04125366 -121.52738647 100.04125366 -121.53540039 98.89526367 C-121.421875 97.12939453 -121.421875 97.12939453 -120.421875 96.12939453 C-119.00617377 96.04287842 -117.58628 96.02234549 -116.16796875 96.03173828 C-114.88696289 96.03657227 -114.88696289 96.03657227 -113.58007812 96.04150391 C-112.68224609 96.04988281 -111.78441406 96.05826172 -110.859375 96.06689453 C-109.95767578 96.07140625 -109.05597656 96.07591797 -108.12695312 96.08056641 C-105.89186186 96.09239229 -103.65690063 96.10887233 -101.421875 96.12939453 C-101.43347656 94.84162109 -101.44507813 93.55384766 -101.45703125 92.22705078 C-101.4664077 90.54866681 -101.47550805 88.87028127 -101.484375 87.19189453 C-101.49275391 86.34175781 -101.50113281 85.49162109 -101.50976562 84.61572266 C-101.51298828 83.80683594 -101.51621094 82.99794922 -101.51953125 82.16455078 C-101.52476807 81.41568604 -101.53000488 80.66682129 -101.53540039 79.89526367 C-101.421875 78.12939453 -101.421875 78.12939453 -100.421875 77.12939453 C-97.68293415 77.04080807 -94.9693423 77.01415974 -92.23046875 77.03173828 C-91.41063004 77.03315323 -90.59079132 77.03456818 -89.74610901 77.036026 C-87.11716118 77.04164164 -84.48829727 77.05419674 -81.859375 77.06689453 C-80.08138143 77.07190752 -78.30338654 77.07647077 -76.52539062 77.08056641 C-72.15751955 77.09161615 -67.78971152 77.10889122 -63.421875 77.12939453 C-63.42711182 76.0137915 -63.43234863 74.89818848 -63.43774414 73.7487793 C-63.45579275 69.6246012 -63.46730649 65.50042663 -63.47680664 61.3762207 C-63.48184718 59.58845432 -63.48867954 57.80069209 -63.49731445 56.01293945 C-63.5093923 53.44888285 -63.51510594 50.88488056 -63.51953125 48.32080078 C-63.52469254 47.51663223 -63.52985382 46.71246368 -63.53517151 45.88392639 C-63.53536715 43.96537738 -63.48389483 42.04694085 -63.421875 40.12939453 C-62.421875 39.12939453 -62.421875 39.12939453 -60.65600586 39.01586914 C-59.90714111 39.02110596 -59.15827637 39.02634277 -58.38671875 39.03173828 C-57.29411743 39.03548462 -57.29411743 39.03548462 -56.17944336 39.03930664 C-55.2488208 39.04841064 -54.31819824 39.05751465 -53.359375 39.06689453 C-48.9353125 39.09783203 -48.9353125 39.09783203 -44.421875 39.12939453 C-44.421875 32.85939453 -44.421875 26.58939453 -44.421875 20.12939453 C-41.24896787 18.54294097 -37.83362116 19.0086124 -34.3515625 19.03173828 C-33.55533478 19.03315323 -32.75910706 19.03456818 -31.93875122 19.036026 C-29.3914212 19.04163108 -26.84417853 19.05418439 -24.296875 19.06689453 C-22.57161585 19.07190888 -20.84635533 19.0764719 -19.12109375 19.08056641 C-14.88798709 19.09160216 -10.65494586 19.10887017 -6.421875 19.12939453 C-6.43347656 17.84162109 -6.44507813 16.55384766 -6.45703125 15.22705078 C-6.4664077 13.54866681 -6.47550805 11.87028127 -6.484375 10.19189453 C-6.49275391 9.34175781 -6.50113281 8.49162109 -6.50976562 7.61572266 C-6.51298828 6.80683594 -6.51621094 5.99794922 -6.51953125 5.16455078 C-6.52476807 4.41568604 -6.53000488 3.66682129 -6.53540039 2.89526367 C-6.28461574 -1.00565107 -3.21952567 0.00249865 0 0 Z " fill="#FBF22B" transform="translate(191.421875,139.87060546875)"/>
<path d="M0 0 C1.15790039 -0.00315216 2.31580078 -0.00630432 3.50878906 -0.009552 C5.39936035 -0.00651566 5.39936035 -0.00651566 7.328125 -0.00341797 C8.61170898 -0.00437469 9.89529297 -0.00533142 11.21777344 -0.00631714 C13.93816324 -0.00779378 16.65852025 -0.00564066 19.37890625 -0.00097656 C22.87297169 0.00472073 26.36696033 0.00144154 29.86102295 -0.00454903 C33.18339653 -0.00902301 36.50574923 -0.00589432 39.828125 -0.00341797 C41.08850586 -0.0054422 42.34888672 -0.00746643 43.64746094 -0.009552 C44.80536133 -0.00639984 45.96326172 -0.00324768 47.15625 0 C48.18137695 0.00079559 49.20650391 0.00159119 50.26269531 0.00241089 C52.578125 0.12939453 52.578125 0.12939453 53.578125 1.12939453 C53.66444374 2.47206866 53.68518973 3.81913775 53.67578125 5.16455078 C53.67255859 5.9734375 53.66933594 6.78232422 53.66601562 7.61572266 C53.65763672 8.46585938 53.64925781 9.31599609 53.640625 10.19189453 C53.63611328 11.04589844 53.63160156 11.89990234 53.62695312 12.77978516 C53.61512873 14.89635117 53.59719269 17.01288138 53.578125 19.12939453 C55.38410156 19.11199219 55.38410156 19.11199219 57.2265625 19.09423828 C58.80208179 19.08486019 60.37760275 19.07576001 61.953125 19.06689453 C62.7471875 19.05851562 63.54125 19.05013672 64.359375 19.04150391 C70.3515625 19.01611328 70.3515625 19.01611328 72.578125 20.12939453 C72.578125 26.39939453 72.578125 32.66939453 72.578125 39.12939453 C78.188125 39.12939453 83.798125 39.12939453 89.578125 39.12939453 C89.578125 32.85939453 89.578125 26.58939453 89.578125 20.12939453 C93.34112874 18.87505995 96.85023409 19.02244031 100.765625 19.06689453 C101.51521484 19.07140625 102.26480469 19.07591797 103.03710938 19.08056641 C104.88414883 19.09233099 106.73114713 19.11026588 108.578125 19.12939453 C108.56652344 17.84162109 108.55492187 16.55384766 108.54296875 15.22705078 C108.5335923 13.54866681 108.52449195 11.87028127 108.515625 10.19189453 C108.50724609 9.34175781 108.49886719 8.49162109 108.49023438 7.61572266 C108.48701172 6.80683594 108.48378906 5.99794922 108.48046875 5.16455078 C108.47523193 4.41568604 108.46999512 3.66682129 108.46459961 2.89526367 C108.578125 1.12939453 108.578125 1.12939453 109.578125 0.12939453 C111.38321873 0.03039892 113.19219428 0.00140302 115 0 C116.15790039 -0.00315216 117.31580078 -0.00630432 118.50878906 -0.009552 C120.39936035 -0.00651566 120.39936035 -0.00651566 122.328125 -0.00341797 C123.61170898 -0.00437469 124.89529297 -0.00533142 126.21777344 -0.00631714 C128.93816324 -0.00779378 131.65852025 -0.00564066 134.37890625 -0.00097656 C137.87297169 0.00472073 141.36696033 0.00144154 144.86102295 -0.00454903 C148.18339653 -0.00902301 151.50574923 -0.00589432 154.828125 -0.00341797 C156.08850586 -0.0054422 157.34888672 -0.00746643 158.64746094 -0.009552 C159.80536133 -0.00639984 160.96326172 -0.00324768 162.15625 0 C163.18137695 0.00079559 164.20650391 0.00159119 165.26269531 0.00241089 C167.578125 0.12939453 167.578125 0.12939453 168.578125 1.12939453 C168.66444374 2.47206866 168.68518973 3.81913775 168.67578125 5.16455078 C168.67255859 5.9734375 168.66933594 6.78232422 168.66601562 7.61572266 C168.65763672 8.46585938 168.64925781 9.31599609 168.640625 10.19189453 C168.63611328 11.04589844 168.63160156 11.89990234 168.62695312 12.77978516 C168.61512873 14.89635117 168.59719269 17.01288138 168.578125 19.12939453 C169.65819824 19.12415771 170.73827148 19.1189209 171.85107422 19.11352539 C175.85041478 19.09545345 179.84975172 19.08395446 183.84912109 19.07446289 C185.58154914 19.06942771 187.31397292 19.06259921 189.04638672 19.05395508 C191.53353933 19.04185388 194.02063587 19.03615815 196.5078125 19.03173828 C197.28494598 19.026577 198.06207947 19.02141571 198.86276245 19.01609802 C204.35038159 19.01552282 204.35038159 19.01552282 206.578125 20.12939453 C206.578125 26.39939453 206.578125 32.66939453 206.578125 39.12939453 C212.848125 39.12939453 219.118125 39.12939453 225.578125 39.12939453 C225.578125 52.32939453 225.578125 65.52939453 225.578125 79.12939453 C219.308125 79.12939453 213.038125 79.12939453 206.578125 79.12939453 C206.578125 91.00939453 206.578125 102.88939453 206.578125 115.12939453 C212.518125 115.12939453 218.458125 115.12939453 224.578125 115.12939453 C225.578125 116.12939453 225.578125 116.12939453 225.69165039 117.89526367 C225.68641357 118.64412842 225.68117676 119.39299316 225.67578125 120.16455078 C225.67255859 120.9734375 225.66933594 121.78232422 225.66601562 122.61572266 C225.65763672 123.46585937 225.64925781 124.31599609 225.640625 125.19189453 C225.63611328 126.04589844 225.63160156 126.89990234 225.62695312 127.77978516 C225.61512873 129.89635117 225.59719269 132.01288138 225.578125 134.12939453 C226.86589844 134.11779297 228.15367187 134.10619141 229.48046875 134.09423828 C231.15885272 134.08486183 232.83723826 134.07576148 234.515625 134.06689453 C235.36576172 134.05851563 236.21589844 134.05013672 237.09179688 134.04150391 C237.90068359 134.03828125 238.70957031 134.03505859 239.54296875 134.03173828 C240.2918335 134.02650146 241.04069824 134.02126465 241.81225586 134.01586914 C243.578125 134.12939453 243.578125 134.12939453 244.578125 135.12939453 C244.67193802 136.97057483 244.69556454 138.81537094 244.69165039 140.65893555 C244.69157486 141.84008438 244.69149933 143.02123322 244.69142151 144.23817444 C244.68626022 145.52356613 244.68109894 146.80895782 244.67578125 148.13330078 C244.67365883 150.09552834 244.67365883 150.09552834 244.67149353 152.09739685 C244.6676691 155.58102312 244.65783946 159.06460793 244.64678955 162.54821777 C244.63657382 166.10066161 244.63199556 169.65311213 244.62695312 173.20556641 C244.61621712 180.18019457 244.59862093 187.15478829 244.578125 194.12939453 C238.308125 194.12939453 232.038125 194.12939453 225.578125 194.12939453 C225.578125 200.39939453 225.578125 206.66939453 225.578125 213.12939453 C219.308125 213.12939453 213.038125 213.12939453 206.578125 213.12939453 C206.578125 219.39939453 206.578125 225.66939453 206.578125 232.12939453 C181.168125 232.12939453 155.758125 232.12939453 129.578125 232.12939453 C129.578125 238.39939453 129.578125 244.66939453 129.578125 251.12939453 C123.308125 251.12939453 117.038125 251.12939453 110.578125 251.12939453 C110.578125 257.39939453 110.578125 263.66939453 110.578125 270.12939453 C78.238125 270.12939453 45.898125 270.12939453 12.578125 270.12939453 C12.578125 263.85939453 12.578125 257.58939453 12.578125 251.12939453 C6.308125 251.12939453 0.038125 251.12939453 -6.421875 251.12939453 C-6.751875 245.18939453 -7.081875 239.24939453 -7.421875 233.12939453 C-13.361875 232.79939453 -19.301875 232.46939453 -25.421875 232.12939453 C-25.421875 225.85939453 -25.421875 219.58939453 -25.421875 213.12939453 C-37.961875 213.12939453 -50.501875 213.12939453 -63.421875 213.12939453 C-63.421875 206.85939453 -63.421875 200.58939453 -63.421875 194.12939453 C-75.961875 194.12939453 -88.501875 194.12939453 -101.421875 194.12939453 C-101.421875 187.85939453 -101.421875 181.58939453 -101.421875 175.12939453 C-108.021875 175.12939453 -114.621875 175.12939453 -121.421875 175.12939453 C-121.421875 168.85939453 -121.421875 162.58939453 -121.421875 156.12939453 C-127.30070503 156.16897223 -127.30070503 156.16897223 -133.17944336 156.21948242 C-133.90784424 156.22197998 -134.63624512 156.22447754 -135.38671875 156.22705078 C-136.1355835 156.2322876 -136.88444824 156.23752441 -137.65600586 156.24291992 C-139.421875 156.12939453 -139.421875 156.12939453 -140.421875 155.12939453 C-140.52294374 152.25675397 -140.56157172 149.40865825 -140.5546875 146.53564453 C-140.55564423 145.6737854 -140.55660095 144.81192627 -140.55758667 143.9239502 C-140.5582685 142.09806241 -140.55641404 140.27217222 -140.55224609 138.44628906 C-140.54689786 135.64138375 -140.55219099 132.83663858 -140.55859375 130.03173828 C-140.55793297 128.26220668 -140.55665181 126.49267517 -140.5546875 124.72314453 C-140.55772385 123.45597595 -140.55772385 123.45597595 -140.56082153 122.16320801 C-140.53682531 116.24434484 -140.53682531 116.24434484 -139.421875 115.12939453 C-138.07920087 115.04307579 -136.73213178 115.0223298 -135.38671875 115.03173828 C-134.57783203 115.03496094 -133.76894531 115.03818359 -132.93554688 115.04150391 C-132.08541016 115.04988281 -131.23527344 115.05826172 -130.359375 115.06689453 C-129.50537109 115.07140625 -128.65136719 115.07591797 -127.77148438 115.08056641 C-125.65491837 115.0923908 -123.53838815 115.11032685 -121.421875 115.12939453 C-121.43347656 113.84162109 -121.44507812 112.55384766 -121.45703125 111.22705078 C-121.4664077 109.54866681 -121.47550805 107.87028127 -121.484375 106.19189453 C-121.49275391 105.34175781 -121.50113281 104.49162109 -121.50976562 103.61572266 C-121.51459961 102.40239258 -121.51459961 102.40239258 -121.51953125 101.16455078 C-121.52738647 100.04125366 -121.52738647 100.04125366 -121.53540039 98.89526367 C-121.421875 97.12939453 -121.421875 97.12939453 -120.421875 96.12939453 C-119.00617377 96.04287842 -117.58628 96.02234549 -116.16796875 96.03173828 C-114.88696289 96.03657227 -114.88696289 96.03657227 -113.58007812 96.04150391 C-112.68224609 96.04988281 -111.78441406 96.05826172 -110.859375 96.06689453 C-109.95767578 96.07140625 -109.05597656 96.07591797 -108.12695312 96.08056641 C-105.89186186 96.09239229 -103.65690063 96.10887233 -101.421875 96.12939453 C-101.43347656 94.84162109 -101.44507813 93.55384766 -101.45703125 92.22705078 C-101.4664077 90.54866681 -101.47550805 88.87028127 -101.484375 87.19189453 C-101.49275391 86.34175781 -101.50113281 85.49162109 -101.50976562 84.61572266 C-101.51298828 83.80683594 -101.51621094 82.99794922 -101.51953125 82.16455078 C-101.52476807 81.41568604 -101.53000488 80.66682129 -101.53540039 79.89526367 C-101.421875 78.12939453 -101.421875 78.12939453 -100.421875 77.12939453 C-97.68293415 77.04080807 -94.9693423 77.01415974 -92.23046875 77.03173828 C-91.41063004 77.03315323 -90.59079132 77.03456818 -89.74610901 77.036026 C-87.11716118 77.04164164 -84.48829727 77.05419674 -81.859375 77.06689453 C-80.08138143 77.07190752 -78.30338654 77.07647077 -76.52539062 77.08056641 C-72.15751955 77.09161615 -67.78971152 77.10889122 -63.421875 77.12939453 C-63.42711182 76.0137915 -63.43234863 74.89818848 -63.43774414 73.7487793 C-63.45579275 69.6246012 -63.46730649 65.50042663 -63.47680664 61.3762207 C-63.48184718 59.58845432 -63.48867954 57.80069209 -63.49731445 56.01293945 C-63.5093923 53.44888285 -63.51510594 50.88488056 -63.51953125 48.32080078 C-63.52469254 47.51663223 -63.52985382 46.71246368 -63.53517151 45.88392639 C-63.53536715 43.96537738 -63.48389483 42.04694085 -63.421875 40.12939453 C-62.421875 39.12939453 -62.421875 39.12939453 -60.65600586 39.01586914 C-59.90714111 39.02110596 -59.15827637 39.02634277 -58.38671875 39.03173828 C-57.29411743 39.03548462 -57.29411743 39.03548462 -56.17944336 39.03930664 C-55.2488208 39.04841064 -54.31819824 39.05751465 -53.359375 39.06689453 C-48.9353125 39.09783203 -48.9353125 39.09783203 -44.421875 39.12939453 C-44.421875 32.85939453 -44.421875 26.58939453 -44.421875 20.12939453 C-41.24896787 18.54294097 -37.83362116 19.0086124 -34.3515625 19.03173828 C-33.55533478 19.03315323 -32.75910706 19.03456818 -31.93875122 19.036026 C-29.3914212 19.04163108 -26.84417853 19.05418439 -24.296875 19.06689453 C-22.57161585 19.07190888 -20.84635533 19.0764719 -19.12109375 19.08056641 C-14.88798709 19.09160216 -10.65494586 19.10887017 -6.421875 19.12939453 C-6.43347656 17.84162109 -6.44507813 16.55384766 -6.45703125 15.22705078 C-6.4664077 13.54866681 -6.47550805 11.87028127 -6.484375 10.19189453 C-6.49275391 9.34175781 -6.50113281 8.49162109 -6.50976562 7.61572266 C-6.51298828 6.80683594 -6.51621094 5.99794922 -6.51953125 5.16455078 C-6.52476807 4.41568604 -6.53000488 3.66682129 -6.53540039 2.89526367 C-6.28461574 -1.00565107 -3.21952567 0.00249865 0 0 Z M-2.421875 23.12939453 C-2.48246094 24.32177734 -2.54304688 25.51416016 -2.60546875 26.74267578 C-2.68988649 28.30909378 -2.77453387 29.87549941 -2.859375 31.44189453 C-2.89869141 32.22757813 -2.93800781 33.01326172 -2.97851562 33.82275391 C-3.02041016 34.58007812 -3.06230469 35.33740234 -3.10546875 36.11767578 C-3.14212646 36.81417236 -3.17878418 37.51066895 -3.21655273 38.22827148 C-3.421875 40.12939453 -3.421875 40.12939453 -4.421875 43.12939453 C-5.906875 42.63439453 -5.906875 42.63439453 -7.421875 42.12939453 C-9.91202745 42.03286994 -12.37330715 41.98938242 -14.86328125 41.99658203 C-15.58676254 41.99562531 -16.31024384 41.99466858 -17.0556488 41.99368286 C-18.58291715 41.99300311 -20.1101884 41.99484312 -21.63745117 41.99902344 C-23.97906958 42.00438239 -26.32049687 41.99906758 -28.66210938 41.99267578 C-30.14583376 41.99333645 -31.62955802 41.99461737 -33.11328125 41.99658203 C-34.16643272 41.99354568 -34.16643272 41.99354568 -35.24085999 41.990448 C-38.955729 41.95614227 -38.955729 41.95614227 -42.421875 43.12939453 C-42.421875 54.67939453 -42.421875 66.22939453 -42.421875 78.12939453 C-36.151875 78.12939453 -29.881875 78.12939453 -23.421875 78.12939453 C-23.421875 84.39939453 -23.421875 90.66939453 -23.421875 97.12939453 C-17.481875 97.12939453 -11.541875 97.12939453 -5.421875 97.12939453 C-5.421875 103.39939453 -5.421875 109.66939453 -5.421875 116.12939453 C-11.691875 116.12939453 -17.961875 116.12939453 -24.421875 116.12939453 C-24.421875 110.18939453 -24.421875 104.24939453 -24.421875 98.12939453 C-49.501875 98.12939453 -74.581875 98.12939453 -100.421875 98.12939453 C-100.421875 104.39939453 -100.421875 110.66939453 -100.421875 117.12939453 C-106.691875 117.12939453 -112.961875 117.12939453 -119.421875 117.12939453 C-119.421875 129.66939453 -119.421875 142.20939453 -119.421875 155.12939453 C-113.151875 155.45939453 -106.881875 155.78939453 -100.421875 156.12939453 C-99.926875 164.04939453 -99.926875 164.04939453 -99.421875 172.12939453 C-87.04210713 172.98317163 -74.83318011 173.21618687 -62.421875 173.12939453 C-62.421875 179.72939453 -62.421875 186.32939453 -62.421875 193.12939453 C-49.881875 193.12939453 -37.341875 193.12939453 -24.421875 193.12939453 C-24.421875 186.85939453 -24.421875 180.58939453 -24.421875 174.12939453 C-18.151875 174.12939453 -11.881875 174.12939453 -5.421875 174.12939453 C-5.421875 167.85939453 -5.421875 161.58939453 -5.421875 155.12939453 C0.848125 155.12939453 7.118125 155.12939453 13.578125 155.12939453 C13.578125 161.39939453 13.578125 167.66939453 13.578125 174.12939453 C7.638125 174.12939453 1.698125 174.12939453 -4.421875 174.12939453 C-4.421875 192.93939453 -4.421875 211.74939453 -4.421875 231.12939453 C1.518125 231.45939453 7.458125 231.78939453 13.578125 232.12939453 C13.908125 238.06939453 14.238125 244.00939453 14.578125 250.12939453 C45.928125 250.12939453 77.278125 250.12939453 109.578125 250.12939453 C109.578125 243.85939453 109.578125 237.58939453 109.578125 231.12939453 C115.848125 231.12939453 122.118125 231.12939453 128.578125 231.12939453 C128.578125 225.18939453 128.578125 219.24939453 128.578125 213.12939453 C122.308125 213.12939453 116.038125 213.12939453 109.578125 213.12939453 C109.578125 206.52939453 109.578125 199.92939453 109.578125 193.12939453 C103.308125 193.12939453 97.038125 193.12939453 90.578125 193.12939453 C90.578125 186.85939453 90.578125 180.58939453 90.578125 174.12939453 C97.178125 174.12939453 103.778125 174.12939453 110.578125 174.12939453 C110.578125 180.39939453 110.578125 186.66939453 110.578125 193.12939453 C148.198125 193.12939453 185.818125 193.12939453 224.578125 193.12939453 C224.578125 174.31939453 224.578125 155.50939453 224.578125 136.12939453 C218.308125 136.12939453 212.038125 136.12939453 205.578125 136.12939453 C205.578125 129.85939453 205.578125 123.58939453 205.578125 117.12939453 C186.438125 117.12939453 167.298125 117.12939453 147.578125 117.12939453 C147.578125 110.52939453 147.578125 103.92939453 147.578125 97.12939453 C160.448125 97.12939453 173.318125 97.12939453 186.578125 97.12939453 C186.578125 90.85939453 186.578125 84.58939453 186.578125 78.12939453 C185.918125 78.12939453 185.258125 78.12939453 184.578125 78.12939453 C184.578125 77.46939453 184.578125 76.80939453 184.578125 76.12939453 C190.518125 76.12939453 196.458125 76.12939453 202.578125 76.12939453 C204.05937544 73.16689366 203.70803184 70.49026558 203.7109375 67.18798828 C203.71189423 66.50511246 203.71285095 65.82223663 203.71383667 65.1186676 C203.71451723 63.67538358 203.7126716 62.2320965 203.70849609 60.78881836 C203.70313782 58.57219625 203.70844943 56.35577601 203.71484375 54.13916016 C203.71418311 52.73876908 203.71290223 51.33837813 203.7109375 49.93798828 C203.70980957 48.65722412 203.70868164 47.37645996 203.70751953 46.05688477 C203.91306204 43.23926705 203.91306204 43.23926705 202.578125 42.12939453 C199.92550533 41.98168838 197.29556693 41.89440218 194.640625 41.84814453 C193.845354 41.82973511 193.05008301 41.81132568 192.23071289 41.7923584 C189.67992765 41.73342482 187.12907478 41.68068195 184.578125 41.62939453 C181.22380915 41.56195526 177.86971842 41.48828716 174.515625 41.41064453 C173.73646729 41.39706909 172.95730957 41.38349365 172.15454102 41.36950684 C166.69092681 41.24219634 166.69092681 41.24219634 165.578125 40.12939453 C165.248125 34.51939453 164.918125 28.90939453 164.578125 23.12939453 C147.418125 23.12939453 130.258125 23.12939453 112.578125 23.12939453 C112.248125 28.73939453 111.918125 34.34939453 111.578125 40.12939453 C107.78360848 42.65907221 104.76615003 42.35299545 100.390625 42.25439453 C96.5234375 42.19251953 96.5234375 42.19251953 92.578125 42.12939453 C92.248125 47.40939453 91.918125 52.68939453 91.578125 58.12939453 C84.318125 58.45939453 77.058125 58.78939453 69.578125 59.12939453 C69.578125 53.18939453 69.578125 47.24939453 69.578125 41.12939453 C63.308125 41.12939453 57.038125 41.12939453 50.578125 41.12939453 C49.48834851 37.86006505 49.51141559 35.49825961 49.578125 32.06689453 C49.78963552 27.94199451 49.78963552 27.94199451 48.578125 24.12939453 C45.64504648 23.10224888 42.89715517 23.00756918 39.80957031 23.01586914 C38.39856049 23.01598244 38.39856049 23.01598244 36.95904541 23.01609802 C35.95162292 23.02125931 34.94420044 23.02642059 33.90625 23.03173828 C32.86869568 23.03315323 31.83114136 23.03456818 30.762146 23.036026 C27.45077624 23.04162006 24.13947429 23.0541715 20.828125 23.06689453 C18.58203223 23.0719103 16.33593839 23.07647307 14.08984375 23.08056641 C8.5859144 23.09158754 3.08202454 23.10831979 -2.421875 23.12939453 Z " fill="#92873E" transform="translate(191.421875,139.87060546875)"/>
<path d="M0 0 C6.6 0 13.2 0 20 0 C20 6.6 20 13.2 20 20 C32.54 20 45.08 20 58 20 C58 25.94 58 31.88 58 38 C64.6 38 71.2 38 78 38 C78 44.6 78 51.2 78 58 C71.4 58 64.8 58 58 58 C58 64.27 58 70.54 58 77 C51.73 77 45.46 77 39 77 C39 89.54 39 102.08 39 115 C45.27 115 51.54 115 58 115 C58 121.6 58 128.2 58 135 C64.27 135 70.54 135 77 135 C77 140.94 77 146.88 77 153 C70.73 153 64.46 153 58 153 C58 159.27 58 165.54 58 172 C26.65 172 -4.7 172 -37 172 C-37.33 166.06 -37.66 160.12 -38 154 C-43.94 153.67 -49.88 153.34 -56 153 C-56 134.19 -56 115.38 -56 96 C-49.73 96 -43.46 96 -37 96 C-37 89.73 -37 83.46 -37 77 C-31.06 77 -25.12 77 -19 77 C-19 70.73 -19 64.46 -19 58 C-25.27 58 -31.54 58 -38 58 C-38 51.73 -38 45.46 -38 39 C-31.73 38.67 -25.46 38.34 -19 38 C-18.67 31.73 -18.34 25.46 -18 19 C-12.06 19 -6.12 19 0 19 C0 12.73 0 6.46 0 0 Z " fill="#FBF22A" transform="translate(243,218)"/>
<path d="M0 0 C19.14 0 38.28 0 58 0 C58 6.27 58 12.54 58 19 C64.27 19 70.54 19 77 19 C77 25.27 77 31.54 77 38 C83.27 38 89.54 38 96 38 C96 31.73 96 25.46 96 19 C102.27 19 108.54 19 115 19 C115 12.73 115 6.46 115 0 C134.14 0 153.28 0 173 0 C173 6.27 173 12.54 173 19 C185.54 19 198.08 19 211 19 C211 25.27 211 31.54 211 38 C217.27 38 223.54 38 230 38 C230 50.54 230 63.08 230 76 C223.73 76 217.46 76 211 76 C211.33 88.54 211.66 101.08 212 114 C217.94 114.33 223.88 114.66 230 115 C230 121.27 230 127.54 230 134 C223.73 134 217.46 134 211 134 C211 127.73 211 121.46 211 115 C191.86 115 172.72 115 153 115 C153 108.4 153 101.8 153 95 C165.87 95 178.74 95 192 95 C192 88.73 192 82.46 192 76 C191.34 76 190.68 76 190 76 C190 75.34 190 74.68 190 74 C195.94 74 201.88 74 208 74 C208 63.11 208 52.22 208 41 C205.42445313 40.95101562 202.84890625 40.90203125 200.1953125 40.8515625 C197.7064828 40.79758396 195.21775101 40.74026426 192.72900391 40.68261719 C190.99665593 40.64428659 189.26422726 40.60944094 187.53173828 40.578125 C185.04430251 40.53256235 182.55742434 40.47455497 180.0703125 40.4140625 C179.29317902 40.40251129 178.51604553 40.39096008 177.71536255 40.37905884 C172.22774341 40.22774341 172.22774341 40.22774341 170 38 C170 32.39 170 26.78 170 21 C152.84 21 135.68 21 118 21 C118 26.61 118 32.22 118 38 C113.39979727 41.45015205 111.11765168 41.22331682 105.75 40.6875 C105.00492188 40.62626953 104.25984375 40.56503906 103.4921875 40.50195312 C101.66017845 40.3492857 99.82985684 40.17660246 98 40 C98.01160156 41.14339844 98.02320313 42.28679687 98.03515625 43.46484375 C98.04453288 44.95572754 98.05363321 46.44661309 98.0625 47.9375 C98.07087891 48.69224609 98.07925781 49.44699219 98.08789062 50.22460938 C98.09652441 52.14994313 98.05224333 54.07535581 98 56 C97 57 97 57 94.86694336 57.11352539 C93.49227905 57.10567017 93.49227905 57.10567017 92.08984375 57.09765625 C91.10048828 57.09443359 90.11113281 57.09121094 89.09179688 57.08789062 C88.05087891 57.07951172 87.00996094 57.07113281 85.9375 57.0625 C84.89271484 57.05798828 83.84792969 57.05347656 82.77148438 57.04882812 C80.18096546 57.03699927 77.59047578 57.01906319 75 57 C75 51.06 75 45.12 75 39 C68.73 39 62.46 39 56 39 C56 38.34 56 37.68 56 37 C55.34 36.67 54.68 36.34 54 36 C54 31.38 54 26.76 54 22 C37.17 21.67 20.34 21.34 3 21 C3 26.61 3 32.22 3 38 C2.34 38.99 1.68 39.98 1 41 C-1.90834885 41.26660183 -4.60138268 41.34779124 -7.5078125 41.29296875 C-8.34843231 41.28872391 -9.18905212 41.28447906 -10.05514526 41.28010559 C-12.74541993 41.26328532 -15.43495099 41.22562781 -18.125 41.1875 C-19.94660378 41.17245745 -21.76821928 41.1587683 -23.58984375 41.14648438 C-28.06041419 41.11591986 -32.52937284 41.05720708 -37 41 C-37 52.55 -37 64.1 -37 76 C-31.06 76 -25.12 76 -19 76 C-19 82.27 -19 88.54 -19 95 C-44.08 95 -69.16 95 -95 95 C-95 88.4 -95 81.8 -95 75 C-82.79 75 -70.58 75 -58 75 C-58 62.79 -58 50.58 -58 38 C-51.4 38 -44.8 38 -38 38 C-38 31.73 -38 25.46 -38 19 C-25.46 19 -12.92 19 0 19 C0 12.73 0 6.46 0 0 Z " fill="#F5F060" transform="translate(186,142)"/>
<path d="M0 0 C6.6 0 13.2 0 20 0 C20 6.6 20 13.2 20 20 C32.54 20 45.08 20 58 20 C58 25.94 58 31.88 58 38 C64.6 38 71.2 38 78 38 C78 44.6 78 51.2 78 58 C71.4 58 64.8 58 58 58 C58 64.27 58 70.54 58 77 C32.59 77 7.18 77 -19 77 C-19 70.73 -19 64.46 -19 58 C-25.27 58 -31.54 58 -38 58 C-38 51.73 -38 45.46 -38 39 C-31.73 38.67 -25.46 38.34 -19 38 C-18.67 31.73 -18.34 25.46 -18 19 C-12.06 19 -6.12 19 0 19 C0 12.73 0 6.46 0 0 Z " fill="#836A03" transform="translate(243,218)"/>
<path d="M0 0 C1.15790039 -0.00315216 2.31580078 -0.00630432 3.50878906 -0.009552 C4.76916992 -0.00752777 6.02955078 -0.00550354 7.328125 -0.00341797 C8.61170898 -0.00437469 9.89529297 -0.00533142 11.21777344 -0.00631714 C13.93816324 -0.00779378 16.65852025 -0.00564066 19.37890625 -0.00097656 C22.87297169 0.00472073 26.36696033 0.00144154 29.86102295 -0.00454903 C33.18339653 -0.00902301 36.50574923 -0.00589432 39.828125 -0.00341797 C41.08850586 -0.0054422 42.34888672 -0.00746643 43.64746094 -0.009552 C44.80536133 -0.00639984 45.96326172 -0.00324768 47.15625 0 C48.18137695 0.00079559 49.20650391 0.00159119 50.26269531 0.00241089 C52.578125 0.12939453 52.578125 0.12939453 53.578125 1.12939453 C53.66444374 2.47206866 53.68518973 3.81913775 53.67578125 5.16455078 C53.67094727 6.37788086 53.67094727 6.37788086 53.66601562 7.61572266 C53.65344727 8.89092773 53.65344727 8.89092773 53.640625 10.19189453 C53.63611328 11.04589844 53.63160156 11.89990234 53.62695312 12.77978516 C53.61512873 14.89635117 53.59719269 17.01288138 53.578125 19.12939453 C55.38410156 19.11199219 55.38410156 19.11199219 57.2265625 19.09423828 C58.80208179 19.08486019 60.37760275 19.07576001 61.953125 19.06689453 C62.7471875 19.05851562 63.54125 19.05013672 64.359375 19.04150391 C70.3515625 19.01611328 70.3515625 19.01611328 72.578125 20.12939453 C72.578125 26.39939453 72.578125 32.66939453 72.578125 39.12939453 C78.188125 39.12939453 83.798125 39.12939453 89.578125 39.12939453 C89.578125 32.85939453 89.578125 26.58939453 89.578125 20.12939453 C93.34112874 18.87505995 96.85023409 19.02244031 100.765625 19.06689453 C101.51521484 19.07140625 102.26480469 19.07591797 103.03710938 19.08056641 C104.88414883 19.09233099 106.73114713 19.11026588 108.578125 19.12939453 C108.56652344 17.84162109 108.55492187 16.55384766 108.54296875 15.22705078 C108.5335923 13.54866681 108.52449195 11.87028127 108.515625 10.19189453 C108.50724609 9.34175781 108.49886719 8.49162109 108.49023438 7.61572266 C108.48701172 6.80683594 108.48378906 5.99794922 108.48046875 5.16455078 C108.47523193 4.41568604 108.46999512 3.66682129 108.46459961 2.89526367 C108.578125 1.12939453 108.578125 1.12939453 109.578125 0.12939453 C111.38321873 0.03039892 113.19219428 0.00140302 115 0 C116.15790039 -0.00315216 117.31580078 -0.00630432 118.50878906 -0.009552 C120.39936035 -0.00651566 120.39936035 -0.00651566 122.328125 -0.00341797 C123.61170898 -0.00437469 124.89529297 -0.00533142 126.21777344 -0.00631714 C128.93816324 -0.00779378 131.65852025 -0.00564066 134.37890625 -0.00097656 C137.87297169 0.00472073 141.36696033 0.00144154 144.86102295 -0.00454903 C148.18339653 -0.00902301 151.50574923 -0.00589432 154.828125 -0.00341797 C156.08850586 -0.0054422 157.34888672 -0.00746643 158.64746094 -0.009552 C159.80536133 -0.00639984 160.96326172 -0.00324768 162.15625 0 C163.18137695 0.00079559 164.20650391 0.00159119 165.26269531 0.00241089 C167.578125 0.12939453 167.578125 0.12939453 168.578125 1.12939453 C168.66444374 2.47206866 168.68518973 3.81913775 168.67578125 5.16455078 C168.67255859 5.9734375 168.66933594 6.78232422 168.66601562 7.61572266 C168.65763672 8.46585938 168.64925781 9.31599609 168.640625 10.19189453 C168.63611328 11.04589844 168.63160156 11.89990234 168.62695312 12.77978516 C168.61512873 14.89635117 168.59719269 17.01288138 168.578125 19.12939453 C169.65819824 19.12415771 170.73827148 19.1189209 171.85107422 19.11352539 C175.85041478 19.09545345 179.84975172 19.08395446 183.84912109 19.07446289 C185.58154914 19.06942771 187.31397292 19.06259921 189.04638672 19.05395508 C191.53353933 19.04185388 194.02063587 19.03615815 196.5078125 19.03173828 C197.28494598 19.026577 198.06207947 19.02141571 198.86276245 19.01609802 C204.35038159 19.01552282 204.35038159 19.01552282 206.578125 20.12939453 C206.578125 26.39939453 206.578125 32.66939453 206.578125 39.12939453 C212.848125 39.12939453 219.118125 39.12939453 225.578125 39.12939453 C225.578125 52.32939453 225.578125 65.52939453 225.578125 79.12939453 C219.308125 79.12939453 213.038125 79.12939453 206.578125 79.12939453 C206.578125 91.00939453 206.578125 102.88939453 206.578125 115.12939453 C212.518125 115.12939453 218.458125 115.12939453 224.578125 115.12939453 C225.578125 116.12939453 225.578125 116.12939453 225.69165039 117.89526367 C225.68641357 118.64412842 225.68117676 119.39299316 225.67578125 120.16455078 C225.67255859 120.9734375 225.66933594 121.78232422 225.66601562 122.61572266 C225.65763672 123.46585937 225.64925781 124.31599609 225.640625 125.19189453 C225.63611328 126.04589844 225.63160156 126.89990234 225.62695312 127.77978516 C225.61512873 129.89635117 225.59719269 132.01288138 225.578125 134.12939453 C226.86589844 134.11779297 228.15367187 134.10619141 229.48046875 134.09423828 C231.15885272 134.08486183 232.83723826 134.07576148 234.515625 134.06689453 C235.36576172 134.05851563 236.21589844 134.05013672 237.09179688 134.04150391 C237.90068359 134.03828125 238.70957031 134.03505859 239.54296875 134.03173828 C240.2918335 134.02650146 241.04069824 134.02126465 241.81225586 134.01586914 C243.578125 134.12939453 243.578125 134.12939453 244.578125 135.12939453 C244.67193802 136.97057483 244.69556454 138.81537094 244.69165039 140.65893555 C244.69157486 141.84008438 244.69149933 143.02123322 244.69142151 144.23817444 C244.68626022 145.52356613 244.68109894 146.80895782 244.67578125 148.13330078 C244.67365883 150.09552834 244.67365883 150.09552834 244.67149353 152.09739685 C244.6676691 155.58102312 244.65783946 159.06460793 244.64678955 162.54821777 C244.63657382 166.10066161 244.63199556 169.65311213 244.62695312 173.20556641 C244.61621712 180.18019457 244.59862093 187.15478829 244.578125 194.12939453 C238.308125 194.12939453 232.038125 194.12939453 225.578125 194.12939453 C225.578125 200.39939453 225.578125 206.66939453 225.578125 213.12939453 C219.308125 213.12939453 213.038125 213.12939453 206.578125 213.12939453 C206.578125 219.39939453 206.578125 225.66939453 206.578125 232.12939453 C206.248125 232.12939453 205.918125 232.12939453 205.578125 232.12939453 C205.578125 225.52939453 205.578125 218.92939453 205.578125 212.12939453 C186.768125 212.12939453 167.958125 212.12939453 148.578125 212.12939453 C148.578125 205.85939453 148.578125 199.58939453 148.578125 193.12939453 C173.658125 193.12939453 198.738125 193.12939453 224.578125 193.12939453 C224.578125 168.04939453 224.578125 142.96939453 224.578125 117.12939453 C218.638125 117.12939453 212.698125 117.12939453 206.578125 117.12939453 C205.578125 116.12939453 205.578125 116.12939453 205.46459961 112.52758789 C205.46475875 110.92479597 205.47045437 109.32199893 205.48046875 107.71923828 C205.48259117 106.45618614 205.48259117 106.45618614 205.48475647 105.1676178 C205.49037237 102.46734118 205.50292752 99.76714626 205.515625 97.06689453 C205.52063795 95.24072385 205.52520121 93.41455187 205.52929688 91.58837891 C205.53949784 87.10199368 205.55907001 82.61578598 205.578125 78.12939453 C211.848125 78.12939453 218.118125 78.12939453 224.578125 78.12939453 C224.578125 65.58939453 224.578125 53.04939453 224.578125 40.12939453 C218.308125 40.12939453 212.038125 40.12939453 205.578125 40.12939453 C205.578125 33.85939453 205.578125 27.58939453 205.578125 21.12939453 C193.038125 21.12939453 180.498125 21.12939453 167.578125 21.12939453 C167.578125 14.85939453 167.578125 8.58939453 167.578125 2.12939453 C148.438125 2.12939453 129.298125 2.12939453 109.578125 2.12939453 C109.578125 8.39939453 109.578125 14.66939453 109.578125 21.12939453 C103.308125 21.12939453 97.038125 21.12939453 90.578125 21.12939453 C90.578125 27.39939453 90.578125 33.66939453 90.578125 40.12939453 C84.308125 40.12939453 78.038125 40.12939453 71.578125 40.12939453 C71.578125 33.85939453 71.578125 27.58939453 71.578125 21.12939453 C65.308125 21.12939453 59.038125 21.12939453 52.578125 21.12939453 C52.578125 14.85939453 52.578125 8.58939453 52.578125 2.12939453 C33.438125 2.12939453 14.298125 2.12939453 -5.421875 2.12939453 C-5.421875 8.39939453 -5.421875 14.66939453 -5.421875 21.12939453 C-17.961875 21.12939453 -30.501875 21.12939453 -43.421875 21.12939453 C-43.421875 27.39939453 -43.421875 33.66939453 -43.421875 40.12939453 C-49.691875 40.12939453 -55.961875 40.12939453 -62.421875 40.12939453 C-62.421875 39.79939453 -62.421875 39.46939453 -62.421875 39.12939453 C-56.481875 39.12939453 -50.541875 39.12939453 -44.421875 39.12939453 C-44.421875 32.85939453 -44.421875 26.58939453 -44.421875 20.12939453 C-41.24896787 18.54294097 -37.83362116 19.0086124 -34.3515625 19.03173828 C-33.15722092 19.0338607 -33.15722092 19.0338607 -31.93875122 19.036026 C-29.3914212 19.04163108 -26.84417853 19.05418439 -24.296875 19.06689453 C-22.57161585 19.07190888 -20.84635533 19.0764719 -19.12109375 19.08056641 C-14.88798709 19.09160216 -10.65494586 19.10887017 -6.421875 19.12939453 C-6.43347656 17.84162109 -6.44507813 16.55384766 -6.45703125 15.22705078 C-6.4664077 13.54866681 -6.47550805 11.87028127 -6.484375 10.19189453 C-6.49275391 9.34175781 -6.50113281 8.49162109 -6.50976562 7.61572266 C-6.51298828 6.80683594 -6.51621094 5.99794922 -6.51953125 5.16455078 C-6.52476807 4.41568604 -6.53000488 3.66682129 -6.53540039 2.89526367 C-6.28461574 -1.00565107 -3.21952567 0.00249865 0 0 Z " fill="#D3C881" transform="translate(191.421875,139.87060546875)"/>
<path d="M0 0 C6.6 0 13.2 0 20 0 C20 12.54 20 25.08 20 38 C26.27 38 32.54 38 39 38 C39 44.27 39 50.54 39 57 C13.92 57 -11.16 57 -37 57 C-37 50.4 -37 43.8 -37 37 C-24.79 37 -12.58 37 0 37 C0 24.79 0 12.58 0 0 Z " fill="#0E0E0B" transform="translate(128,180)"/>
<path d="M0 0 C12.21 0 24.42 0 37 0 C37 6.27 37 12.54 37 19 C55.81 19 74.62 19 94 19 C94 24.94 94 30.88 94 37 C69.25 37 44.5 37 19 37 C19 30.73 19 24.46 19 18 C12.73 18 6.46 18 0 18 C0 12.06 0 6.12 0 0 Z " fill="#040302" transform="translate(302,334)"/>
<path d="M0 0 C6.27 0 12.54 0 19 0 C19.33 12.54 19.66 25.08 20 38 C25.94 38.33 31.88 38.66 38 39 C38 45.27 38 51.54 38 58 C31.73 58 25.46 58 19 58 C19 51.73 19 45.46 19 39 C-0.14 39 -19.28 39 -39 39 C-39 32.4 -39 25.8 -39 19 C-26.13 19 -13.26 19 0 19 C0 12.73 0 6.46 0 0 Z " fill="#050302" transform="translate(378,218)"/>
<path d="M0 0 C19.14 0 38.28 0 58 0 C58 6.27 58 12.54 58 19 C70.54 19 83.08 19 96 19 C96 25.27 96 31.54 96 38 C83.13 38 70.26 38 57 38 C57 31.73 57 25.46 57 19 C38.19 19 19.38 19 0 19 C0 12.73 0 6.46 0 0 Z " fill="#030302" transform="translate(301,142)"/>
<path d="M0 0 C19.14 0 38.28 0 58 0 C58 6.27 58 12.54 58 19 C39.19 19 20.38 19 1 19 C1 25.27 1 31.54 1 38 C-11.87 38 -24.74 38 -38 38 C-38 31.73 -38 25.46 -38 19 C-25.46 19 -12.92 19 0 19 C0 12.73 0 6.46 0 0 Z " fill="#030302" transform="translate(186,142)"/>
<path d="M0 0 C31.35 0 62.7 0 95 0 C95 5.94 95 11.88 95 18 C63.65 18 32.3 18 0 18 C0 12.06 0 6.12 0 0 Z " fill="#040303" transform="translate(206,391)"/>
<path d="M0 0 C31.35 0 62.7 0 95 0 C95 5.94 95 11.88 95 18 C63.65 18 32.3 18 0 18 C0 12.06 0 6.12 0 0 Z " fill="#DAC129" transform="translate(206,372)"/>
<path d="M0 0 C25.08 0 50.16 0 76 0 C76 6.27 76 12.54 76 19 C82.27 19 88.54 19 95 19 C95 25.27 95 31.54 95 38 C88.07 38 81.14 38 74 38 C74 32.06 74 26.12 74 20 C67.73 20 61.46 20 55 20 C55 19.34 55 18.68 55 18 C54.34 17.67 53.68 17.34 53 17 C53 12.38 53 7.76 53 3 C36.17 2.67 19.34 2.34 2 2 C2 7.61 2 13.22 2 19 C1.34 19.99 0.68 20.98 0 22 C-2.90834885 22.26660183 -5.60138268 22.34779124 -8.5078125 22.29296875 C-9.34843231 22.28872391 -10.18905212 22.28447906 -11.05514526 22.28010559 C-13.74541993 22.26328532 -16.43495099 22.22562781 -19.125 22.1875 C-20.94660378 22.17245745 -22.76821928 22.1587683 -24.58984375 22.14648438 C-29.06041419 22.11591986 -33.52937284 22.05720708 -38 22 C-38 33.55 -38 45.1 -38 57 C-38.33 57 -38.66 57 -39 57 C-39 44.46 -39 31.92 -39 19 C-26.13 19 -13.26 19 0 19 C0 12.73 0 6.46 0 0 Z " fill="#EBE659" transform="translate(187,161)"/>
<path d="M0 0 C6.27 0 12.54 0 19 0 C19 18.81 19 37.62 19 57 C12.73 57 6.46 57 0 57 C0 38.19 0 19.38 0 0 Z " fill="#080804" transform="translate(416,276)"/>
<path d="M0 0 C0.33 0 0.66 0 1 0 C1 5.94 1 11.88 1 18 C19.48 18 37.96 18 57 18 C57 12.06 57 6.12 57 0 C57.33 0 57.66 0 58 0 C58 6.27 58 12.54 58 19 C70.54 19 83.08 19 96 19 C96 25.27 96 31.54 96 38 C83.13 38 70.26 38 57 38 C57 31.73 57 25.46 57 19 C38.19 19 19.38 19 0 19 C0 12.73 0 6.46 0 0 Z " fill="#131209" transform="translate(301,142)"/>
<path d="M0 0 C0.33 0 0.66 0 1 0 C1 5.94 1 11.88 1 18 C19.48 18 37.96 18 57 18 C57 12.06 57 6.12 57 0 C57.33 0 57.66 0 58 0 C58 6.27 58 12.54 58 19 C39.19 19 20.38 19 1 19 C1 25.27 1 31.54 1 38 C-11.87 38 -24.74 38 -38 38 C-38 31.73 -38 25.46 -38 19 C-25.46 19 -12.92 19 0 19 C0 12.73 0 6.46 0 0 Z " fill="#131208" transform="translate(186,142)"/>
<path d="M0 0 C6.27 0 12.54 0 19 0 C19 12.54 19 25.08 19 38 C25.27 38 31.54 38 38 38 C38 38.33 38 38.66 38 39 C25.46 39 12.92 39 0 39 C0 26.13 0 13.26 0 0 Z " fill="#D5BE2C" transform="translate(263,199)"/>
<path d="M0 0 C12.54 0 25.08 0 38 0 C38 6.27 38 12.54 38 19 C25.46 19 12.92 19 0 19 C0 12.73 0 6.46 0 0 Z " fill="#080704" transform="translate(129,333)"/>
<path d="M0 0 C12.54 0 25.08 0 38 0 C38 6.27 38 12.54 38 19 C25.46 19 12.92 19 0 19 C0 12.73 0 6.46 0 0 Z " fill="#080703" transform="translate(91,314)"/>
<path d="M0 0 C12.54 0 25.08 0 38 0 C38 6.27 38 12.54 38 19 C25.46 19 12.92 19 0 19 C0 12.73 0 6.46 0 0 Z " fill="#D6BF32" transform="translate(129,314)"/>
<path d="M0 0 C6.27 0 12.54 0 19 0 C19 12.54 19 25.08 19 38 C12.73 38 6.46 38 0 38 C0 25.46 0 12.92 0 0 Z " fill="#080704" transform="translate(397,180)"/>
<path d="M0 0 C5.94 0 11.88 0 18 0 C18 12.21 18 24.42 18 37 C12.06 37 6.12 37 0 37 C0 24.79 0 12.58 0 0 Z " fill="#040402" transform="translate(53,257)"/>
<path d="M0 0 C6.27 0 12.54 0 19 0 C19.33 12.54 19.66 25.08 20 38 C25.94 38.33 31.88 38.66 38 39 C38 45.27 38 51.54 38 58 C31.73 58 25.46 58 19 58 C19 51.73 19 45.46 19 39 C-0.14 39 -19.28 39 -39 39 C-39 32.4 -39 25.8 -39 19 C-26.13 19 -13.26 19 0 19 C0 19.33 0 19.66 0 20 C-12.54 20 -25.08 20 -38 20 C-38 25.94 -38 31.88 -38 38 C-19.52 38 -1.04 38 18 38 C18 25.79 18 13.58 18 1 C12.06 1 6.12 1 0 1 C0 0.67 0 0.34 0 0 Z " fill="#28250C" transform="translate(378,218)"/>
<path d="M0 0 C6.27 0 12.54 0 19 0 C19 6.6 19 13.2 19 20 C25.27 20 31.54 20 38 20 C38 25.94 38 31.88 38 38 C31.73 38 25.46 38 19 38 C18.65820312 32.67773438 18.65820312 32.67773438 18.31640625 27.35546875 C18.12815453 24.00818107 18.12815453 24.00818107 17 21 C16.9193378 19.51876453 16.89238807 18.03417796 16.90234375 16.55078125 C16.90556641 15.70322266 16.90878906 14.85566406 16.91210938 13.98242188 C16.92048828 13.10134766 16.92886719 12.22027344 16.9375 11.3125 C16.94201172 10.41982422 16.94652344 9.52714844 16.95117188 8.60742188 C16.96294996 6.40491927 16.98088519 4.20245115 17 2 C11.72 2 6.44 2 1 2 C0.67 1.34 0.34 0.68 0 0 Z " fill="#D3C046" transform="translate(282,333)"/>
<path d="M0 0 C0.33 0 0.66 0 1 0 C1 5.94 1 11.88 1 18 C6.17558985 17.96048518 6.17558985 17.96048518 11.35107422 17.90991211 C16.77777778 17.88888889 16.77777778 17.88888889 19 19 C19 25.27 19 31.54 19 38 C12.73 38 6.46 38 0 38 C0 31.73 0 25.46 0 19 C-5.94 19 -11.88 19 -18 19 C-18 18.67 -18 18.34 -18 18 C-12.06 18 -6.12 18 0 18 C0 12.06 0 6.12 0 0 Z " fill="#D9C128" transform="translate(186,238)"/>
<path d="M0 0 C0.33 0 0.66 0 1 0 C1 12.54 1 25.08 1 38 C-5.6 38 -12.2 38 -19 38 C-19 31.73 -19 25.46 -19 19 C-12.73 19 -6.46 19 0 19 C0 12.73 0 6.46 0 0 Z " fill="#DBC32A" transform="translate(301,276)"/>
<path d="M0 0 C6.27 0 12.54 0 19 0 C19 6.27 19 12.54 19 19 C13.06 19 7.12 19 1 19 C1 25.27 1 31.54 1 38 C0.67 38 0.34 38 0 38 C0 31.73 0 25.46 0 19 C-6.27 19 -12.54 19 -19 19 C-19 18.67 -19 18.34 -19 18 C-12.73 18 -6.46 18 0 18 C0 12.06 0 6.12 0 0 Z " fill="#DBC12B" transform="translate(205,276)"/>
<path d="M0 0 C6.6 0 13.2 0 20 0 C20.020625 2.949375 20.04125 5.89875 20.0625 8.9375 C20.071604 9.86812256 20.08070801 10.79874512 20.09008789 11.75756836 C20.09258545 12.48596924 20.09508301 13.21437012 20.09765625 13.96484375 C20.10551147 15.08814087 20.10551147 15.08814087 20.11352539 16.23413086 C20 18 20 18 19 19 C17.58429877 19.08651611 16.164405 19.10704904 14.74609375 19.09765625 C13.9770874 19.09515869 13.20808105 19.09266113 12.41577148 19.09008789 C11.43294189 19.08098389 10.4501123 19.07187988 9.4375 19.0625 C4.7659375 19.0315625 4.7659375 19.0315625 0 19 C0 12.73 0 6.46 0 0 Z " fill="#D8C02B" transform="translate(205,238)"/>
<path d="M0 0 C6.27 0 12.54 0 19 0 C19 6.6 19 13.2 19 20 C12.73 19.67 6.46 19.34 0 19 C0 12.73 0 6.46 0 0 Z " fill="#D9C330" transform="translate(187,352)"/>
<path d="M0 0 C6.27 0 12.54 0 19 0 C19 6.27 19 12.54 19 19 C12.73 19 6.46 19 0 19 C0 12.73 0 6.46 0 0 Z " fill="#0C0A04" transform="translate(397,333)"/>
<path d="M0 0 C6.27 0 12.54 0 19 0 C19 6.27 19 12.54 19 19 C12.73 19 6.46 19 0 19 C0 12.73 0 6.46 0 0 Z " fill="#0D0A04" transform="translate(282,314)"/>
<path d="M0 0 C6.27 0 12.54 0 19 0 C19 6.27 19 12.54 19 19 C12.73 19 6.46 19 0 19 C0 12.73 0 6.46 0 0 Z " fill="#0C0903" transform="translate(167,314)"/>
<path d="M0 0 C5.94 0 11.88 0 18 0 C18 5.94 18 11.88 18 18 C24.27 18 30.54 18 37 18 C37 18.33 37 18.66 37 19 C24.79 19 12.58 19 0 19 C0 12.73 0 6.46 0 0 Z " fill="#D8C333" transform="translate(302,314)"/>
<path d="M0 0 C6.27 0 12.54 0 19 0 C19 6.27 19 12.54 19 19 C12.73 19 6.46 19 0 19 C0 12.73 0 6.46 0 0 Z " fill="#0D0A04" transform="translate(186,295)"/>
<path d="M0 0 C6.27 0 12.54 0 19 0 C19 6.27 19 12.54 19 19 C12.73 19 6.46 19 0 19 C0 12.73 0 6.46 0 0 Z " fill="#DAC326" transform="translate(167,295)"/>
<path d="M0 0 C6.27 0 12.54 0 19 0 C19 6.27 19 12.54 19 19 C12.73 19 6.46 19 0 19 C0 12.73 0 6.46 0 0 Z " fill="#DBC22B" transform="translate(359,218)"/>
<path d="M0 0 C6.27 0 12.54 0 19 0 C19 6.27 19 12.54 19 19 C12.73 19 6.46 19 0 19 C0 12.73 0 6.46 0 0 Z " fill="#0C0904" transform="translate(263,180)"/>
<path d="M0 0 C6.27 0 12.54 0 19 0 C19 6.27 19 12.54 19 19 C12.73 19 6.46 19 0 19 C0 12.73 0 6.46 0 0 Z " fill="#0B0A06" transform="translate(282,161)"/>
<path d="M0 0 C6.27 0 12.54 0 19 0 C19 6.27 19 12.54 19 19 C12.73 19 6.46 19 0 19 C0 12.73 0 6.46 0 0 Z " fill="#0B0906" transform="translate(244,161)"/>
<path d="M0 0 C5.94 0 11.88 0 18 0 C18 6.27 18 12.54 18 19 C12.06 19 6.12 19 0 19 C0 12.73 0 6.46 0 0 Z " fill="#030304" transform="translate(72,295)"/>
<path d="M0 0 C6.27 0 12.54 0 19 0 C19 5.94 19 11.88 19 18 C12.73 18 6.46 18 0 18 C0 12.06 0 6.12 0 0 Z " fill="#090502" transform="translate(301,257)"/>
<path d="M0 0 C4.1765625 -0.0309375 4.1765625 -0.0309375 8.4375 -0.0625 C9.75512329 -0.07615601 9.75512329 -0.07615601 11.09936523 -0.09008789 C13.06645974 -0.09723091 15.03353621 -0.05031893 17 0 C18 1 18 1 18.11352539 2.76586914 C18.10828857 3.51473389 18.10305176 4.26359863 18.09765625 5.03515625 C18.09515869 5.76355713 18.09266113 6.49195801 18.09008789 7.24243164 C18.08098389 8.1730542 18.07187988 9.10367676 18.0625 10.0625 C18.041875 13.011875 18.02125 15.96125 18 19 C12.06 19 6.12 19 0 19 C0 12.73 0 6.46 0 0 Z " fill="#D9C22A" transform="translate(321,257)"/>
<path d="M0 0 C5.94 0 11.88 0 18 0 C18 5.94 18 11.88 18 18 C12.06 18 6.12 18 0 18 C0 12.06 0 6.12 0 0 Z " fill="#030304" transform="translate(187,372)"/>
<path d="M0 0 C5.94 0 11.88 0 18 0 C18 5.94 18 11.88 18 18 C12.06 18 6.12 18 0 18 C0 12.06 0 6.12 0 0 Z " fill="#050304" transform="translate(302,372)"/>
<path d="M0 0 C5.94 0 11.88 0 18 0 C18 5.94 18 11.88 18 18 C12.06 18 6.12 18 0 18 C0 12.06 0 6.12 0 0 Z " fill="#050401" transform="translate(168,353)"/>
<path d="M0 0 C5.94 0 11.88 0 18 0 C18 5.94 18 11.88 18 18 C12.06 18 6.12 18 0 18 C0 12.06 0 6.12 0 0 Z " fill="#D7C135" transform="translate(168,334)"/>
<path d="M0 0 C5.94 0 11.88 0 18 0 C18 5.94 18 11.88 18 18 C12.06 18 6.12 18 0 18 C0 12.06 0 6.12 0 0 Z " fill="#040402" transform="translate(72,238)"/>
<path d="M0 0 C5.94 0 11.88 0 18 0 C18 5.94 18 11.88 18 18 C12.06 18 6.12 18 0 18 C0 12.06 0 6.12 0 0 Z " fill="#060402" transform="translate(244,219)"/>
<path d="M0 0 C6.27 0 12.54 0 19 0 C19 5.94 19 11.88 19 18 C13.06 17.67 7.12 17.34 1 17 C0.67 11.39 0.34 5.78 0 0 Z " fill="#DBC327" transform="translate(91,295)"/>
<path d="M0 0 C0.33 0 0.66 0 1 0 C1 18.81 1 37.62 1 57 C6.94 57 12.88 57 19 57 C20 58 20 58 20.11352539 61.60180664 C20.11336625 63.20459856 20.10767063 64.8073956 20.09765625 66.41015625 C20.0962413 67.25219101 20.09482635 68.09422577 20.09336853 68.96177673 C20.08775263 71.66205335 20.07519748 74.36224828 20.0625 77.0625 C20.05748705 78.88867068 20.05292379 80.71484266 20.04882812 82.54101562 C20.03777804 87.02737542 20.02050279 91.51367384 20 96 C19.34 96 18.68 96 18 96 C18 89.73 18 83.46 18 77 C11.73 77 5.46 77 -1 77 C-1.33 71.06 -1.66 65.12 -2 59 C-7.61 58.67 -13.22 58.34 -19 58 C-19 45.13 -19 32.26 -19 19 C-12.73 19 -6.46 19 0 19 C0 12.73 0 6.46 0 0 Z M-18 20 C-18 25.94 -18 31.88 -18 38 C-12.06 38 -6.12 38 0 38 C0 32.06 0 26.12 0 20 C-5.94 20 -11.88 20 -18 20 Z M-18 39 C-18 44.94 -18 50.88 -18 57 C-12.06 57 -6.12 57 0 57 C0 51.06 0 45.12 0 39 C-5.94 39 -11.88 39 -18 39 Z M1 58 C1 63.94 1 69.88 1 76 C6.94 76 12.88 76 19 76 C19 70.06 19 64.12 19 58 C13.06 58 7.12 58 1 58 Z " fill="#908A5F" transform="translate(186,314)"/>
<path d="M0 0 C6.27 0 12.54 0 19 0 C19 6.27 19 12.54 19 19 C25.27 19 31.54 19 38 19 C38 12.73 38 6.46 38 0 C38.66 0.33 39.32 0.66 40 1 C40 6.28 40 11.56 40 17 C43.58875 16.9690625 43.58875 16.9690625 47.25 16.9375 C57.18659757 16.89693438 67.08291833 17.42569124 77 18 C77 18.33 77 18.66 77 19 C64.46 19 51.92 19 39 19 C39 25.27 39 31.54 39 38 C51.54 38 64.08 38 77 38 C77 44.27 77 50.54 77 57 C89.54 57 102.08 57 115 57 C115 63.6 115 70.2 115 77 C114.67 77 114.34 77 114 77 C114 70.73 114 64.46 114 58 C101.46 58 88.92 58 76 58 C76 51.73 76 45.46 76 39 C63.46 39 50.92 39 38 39 C38 32.73 38 26.46 38 20 C31.4 20 24.8 20 18 20 C18 13.73 18 7.46 18 1 C12.06 1 6.12 1 0 1 C0 0.67 0 0.34 0 0 Z " fill="#BFBB9D" transform="translate(52,295)"/>
<path d="M0 0 C25.08 0 50.16 0 76 0 C76 0.66 76 1.32 76 2 C51.58 2 27.16 2 2 2 C2 7.61 2 13.22 2 19 C1 20 1 20 -0.85766602 20.11352539 C-1.64842529 20.10828857 -2.43918457 20.10305176 -3.25390625 20.09765625 C-4.0229126 20.09515869 -4.79191895 20.09266113 -5.58422852 20.09008789 C-6.56705811 20.08098389 -7.5498877 20.07187988 -8.5625 20.0625 C-13.2340625 20.0315625 -13.2340625 20.0315625 -18 20 C-17.67 31.22 -17.34 42.44 -17 54 C-11.39 54.33 -5.78 54.66 0 55 C0.33 55.66 0.66 56.32 1 57 C-5.6 57 -12.2 57 -19 57 C-19 44.46 -19 31.92 -19 19 C-12.73 19 -6.46 19 0 19 C0 12.73 0 6.46 0 0 Z " fill="#F7F358" transform="translate(91,238)"/>
<path d="M0 0 C18.48 0 36.96 0 56 0 C56 6.27 56 12.54 56 19 C62.27 19 68.54 19 75 19 C75 37.81 75 56.62 75 76 C68.73 76 62.46 76 56 76 C56 75.34 56 74.68 56 74 C61.61 74 67.22 74 73 74 C72.67 56.84 72.34 39.68 72 22 C66.72 21.67 61.44 21.34 56 21 C55.34 20.34 54.68 19.68 54 19 C54 13.06 54 7.12 54 1 C36.18 1 18.36 1 0 1 C0 0.67 0 0.34 0 0 Z " fill="#ECE75F" transform="translate(341,257)"/>
<path d="M0 0 C0.66 0 1.32 0 2 0 C2 5.28 2 10.56 2 16 C13.14398283 15.89195103 24.28790497 15.77986787 35.43177414 15.66066074 C40.60618722 15.60547126 45.780606 15.55205756 50.95507812 15.50268555 C55.94771492 15.45498345 60.94028334 15.40263843 65.93283844 15.34705925 C67.83861846 15.32666221 69.74441722 15.30794476 71.65023041 15.29092598 C74.31734493 15.26682335 76.98433066 15.23677672 79.65136719 15.20532227 C80.8360408 15.19668907 80.8360408 15.19668907 82.04464722 15.18788147 C85.59083211 15.14027181 88.53365572 14.86658607 92 14 C92.33 9.38 92.66 4.76 93 0 C93.66 0 94.32 0 95 0 C95 5.94 95 11.88 95 18 C63.65 18 32.3 18 0 18 C0 12.06 0 6.12 0 0 Z " fill="#D0BF4B" transform="translate(206,372)"/>
<path d="M0 0 C25.08 0 50.16 0 76 0 C76 12.54 76 25.08 76 38 C75.01 38.99 75.01 38.99 74 40 C73 39 73 39 72.88647461 37.05053711 C72.89432983 35.8015564 72.89432983 35.8015564 72.90234375 34.52734375 C72.90717773 33.17866211 72.90717773 33.17866211 72.91210938 31.80273438 C72.92467773 30.38444336 72.92467773 30.38444336 72.9375 28.9375 C72.94201172 27.98810547 72.94652344 27.03871094 72.95117188 26.06054688 C72.9629989 23.70696935 72.97947975 21.35351523 73 19 C73.66 19 74.32 19 75 19 C74.67 13.72 74.34 8.44 74 3 C72.20151611 3.00785522 72.20151611 3.00785522 70.36669922 3.01586914 C65.85270963 3.03418014 61.33872322 3.04552587 56.82470703 3.05493164 C54.88329514 3.05991292 52.9418869 3.06670036 51.00048828 3.07543945 C40.90583804 3.1196914 30.90742896 3.07246651 20.84277344 2.22924805 C17.27679475 1.941679 13.76458551 1.8668238 10.1875 1.875 C9.02605469 1.87242187 7.86460937 1.86984375 6.66796875 1.8671875 C4.07940172 1.69690636 4.07940172 1.69690636 3 3 C2.76321284 5.69235776 2.57801975 8.36498156 2.4375 11.0625 C2.39431641 11.82111328 2.35113281 12.57972656 2.30664062 13.36132812 C2.20026367 15.24065438 2.09960066 17.12030244 2 19 C1.34 19 0.68 19 0 19 C0 12.73 0 6.46 0 0 Z " fill="#F8EC43" transform="translate(206,295)"/>
<path d="M0 0 C0.66 0 1.32 0 2 0 C2.33 5.61 2.66 11.22 3 17 C7.85266791 16.9019663 12.70468568 16.79858707 17.55688477 16.68261719 C19.20037402 16.64482478 20.84393213 16.6098953 22.48754883 16.578125 C33.15467814 16.36954074 43.44643023 15.60555236 54 14 C54 9.38 54 4.76 54 0 C54.99 0 55.98 0 57 0 C57 6.27 57 12.54 57 19 C38.19 19 19.38 19 0 19 C0 12.73 0 6.46 0 0 Z " fill="#CCBA4F" transform="translate(340,333)"/>
<path d="M0 0 C6.27 0 12.54 0 19 0 C19 6.6 19 13.2 19 20 C21.97 20.66 24.94 21.32 28 22 C28 26.29 28 30.58 28 35 C25.03 35.66 22.06 36.32 19 37 C18.93941406 36.09636719 18.87882812 35.19273437 18.81640625 34.26171875 C18.73261719 33.08222656 18.64882813 31.90273438 18.5625 30.6875 C18.48128906 29.51574219 18.40007812 28.34398437 18.31640625 27.13671875 C18.1132629 23.97409042 18.1132629 23.97409042 17 21 C16.9193378 19.51876453 16.89238807 18.03417796 16.90234375 16.55078125 C16.90556641 15.70322266 16.90878906 14.85566406 16.91210938 13.98242188 C16.92048828 13.10134766 16.92886719 12.22027344 16.9375 11.3125 C16.94201172 10.41982422 16.94652344 9.52714844 16.95117188 8.60742188 C16.96294996 6.40491927 16.98088519 4.20245115 17 2 C11.72 2 6.44 2 1 2 C0.67 1.34 0.34 0.68 0 0 Z " fill="#DBC428" transform="translate(282,333)"/>
<path d="M0 0 C12.54 0 25.08 0 38 0 C38 12.54 38 25.08 38 38 C31.07 38 24.14 38 17 38 C17 37.34 17 36.68 17 36 C22.94 36 28.88 36 35 36 C35.33 24.45 35.66 12.9 36 1 C24.12 1 12.24 1 0 1 C0 0.67 0 0.34 0 0 Z " fill="#E3DF5E" transform="translate(359,180)"/>
<path d="M0 0 C1.25126437 2.50252875 1.08322978 4.14269748 1.02734375 6.9375 C1.01509766 7.91460937 1.00285156 8.89171875 0.99023438 9.8984375 C0.95507693 11.96621592 0.91601402 14.03393162 0.87304688 16.1015625 C0.86208984 17.07867187 0.85113281 18.05578125 0.83984375 19.0625 C0.82300537 19.96097656 0.80616699 20.85945313 0.78881836 21.78515625 C0.78253903 24.20707051 0.78253903 24.20707051 3 26 C3.39764263 27.98821313 3.73775349 29.98944339 4 32 C7.63 32.33 11.26 32.66 15 33 C15.33 33.99 15.66 34.98 16 36 C10.06 36 4.12 36 -2 36 C-2 24.45 -2 12.9 -2 1 C-1.34 0.67 -0.68 0.34 0 0 Z " fill="#F6F04A" transform="translate(151,182)"/>
<path d="M0 0 C5.28 0 10.56 0 16 0 C16 0.33 16 0.66 16 1 C11.05 1 6.1 1 1 1 C1.01160156 2.07378906 1.02320313 3.14757812 1.03515625 4.25390625 C1.04454315 5.69010241 1.05364238 7.12630048 1.0625 8.5625 C1.07087891 9.26697266 1.07925781 9.97144531 1.08789062 10.69726562 C1.10277793 13.92781042 1.00699727 16.95288502 0.53125 20.15625 C-0.28485335 26.06099776 -0.37206574 31.98408789 -0.5625 37.9375 C-0.60568359 39.19369141 -0.64886719 40.44988281 -0.69335938 41.74414062 C-0.79893619 44.82932968 -0.90104551 47.91459263 -1 51 C-0.34 51 0.32 51 1 51 C1 51.66 1 52.32 1 53 C6.28 53 11.56 53 17 53 C17 53.66 17 54.32 17 55 C10.73 55 4.46 55 -2 55 C-2.02290785 49.60647411 -2.04283526 44.21311579 -2.05493164 38.81958008 C-2.05997231 36.98331125 -2.06680477 35.14704646 -2.07543945 33.31079102 C-2.08751672 30.67723599 -2.09323081 28.04373384 -2.09765625 25.41015625 C-2.10281754 24.58411392 -2.10797882 23.75807159 -2.11329651 22.90699768 C-2.11349205 20.93763632 -2.06204152 18.96838386 -2 17 C-1.67 16.67 -1.34 16.34 -1 16 C-0.76304852 13.30577395 -0.57831398 10.63665389 -0.4375 7.9375 C-0.293125 5.318125 -0.14875 2.69875 0 0 Z " fill="#F4E93A" transform="translate(284,182)"/>
<path d="M0 0 C0.33 0 0.66 0 1 0 C1 6.6 1 13.2 1 20 C-5.27 20 -11.54 20 -18 20 C-18 25.94 -18 31.88 -18 38 C-24.6 38 -31.2 38 -38 38 C-38 37.67 -38 37.34 -38 37 C-32.06 37 -26.12 37 -20 37 C-20.03957769 31.12116997 -20.03957769 31.12116997 -20.09008789 25.24243164 C-20.09258545 24.51403076 -20.09508301 23.78562988 -20.09765625 23.03515625 C-20.10551147 21.91185913 -20.10551147 21.91185913 -20.11352539 20.76586914 C-20 19 -20 19 -19 18 C-17.58429877 17.91348389 -16.164405 17.89295096 -14.74609375 17.90234375 C-13.46508789 17.90717773 -13.46508789 17.90717773 -12.15820312 17.91210938 C-10.81145508 17.92467773 -10.81145508 17.92467773 -9.4375 17.9375 C-8.53580078 17.94201172 -7.63410156 17.94652344 -6.70507812 17.95117188 C-4.47002411 17.96299756 -2.23500398 17.98093362 0 18 C0 12.06 0 6.12 0 0 Z " fill="#B6B5B4" transform="translate(90,218)"/>
<path d="M0 0 C3.28753247 3.28753247 3.40542414 4.33858785 3.45898438 8.8046875 C3.45189453 9.52914062 3.44480469 10.25359375 3.4375 11 C3.4674707 12.08667969 3.4674707 12.08667969 3.49804688 13.1953125 C3.49515182 16.33355201 3.39857891 18.46753154 1.48828125 21.01953125 C-2.13123697 22.44574644 -5.46813696 22.06393191 -9.25 21.6875 C-11.8075 21.460625 -14.365 21.23375 -17 21 C-17 26.28 -17 31.56 -17 37 C-17.99 37.495 -17.99 37.495 -19 38 C-19 31.73 -19 25.46 -19 19 C-12.73 19 -6.46 19 0 19 C0 12.73 0 6.46 0 0 Z " fill="#D9D554" transform="translate(301,161)"/>
<path d="M0 0 C0.66 0 1.32 0 2 0 C2 6.27 2 12.54 2 19 C-4.27 19 -10.54 19 -17 19 C-16.67 17.68 -16.34 16.36 -16 15 C-11.38 14.67 -6.76 14.34 -2 14 C-1.34 9.38 -0.68 4.76 0 0 Z " fill="#CCBB48" transform="translate(184,295)"/>
<path d="M0 0 C6.27 0 12.54 0 19 0 C18.67 0.99 18.34 1.98 18 3 C13.38 3.66 8.76 4.32 4 5 C4 5.99 4 6.98 4 8 C3.34 8 2.68 8 2 8 C2 11.63 2 15.26 2 19 C1.34 19.33 0.68 19.66 0 20 C0 13.4 0 6.8 0 0 Z " fill="#F2ED4F" transform="translate(187,314)"/>
<path d="M0 0 C5.94 0 11.88 0 18 0 C18 0.33 18 0.66 18 1 C12.39 1 6.78 1 1 1 C1.33 12.22 1.66 23.44 2 35 C7.61 35.33 13.22 35.66 19 36 C19.33 36.66 19.66 37.32 20 38 C13.4 38 6.8 38 0 38 C0 25.46 0 12.92 0 0 Z " fill="#ECE76B" transform="translate(72,257)"/>
<path d="M0 0 C18.15 0.33 36.3 0.66 55 1 C55 6.61 55 12.22 55 18 C54.67 18 54.34 18 54 18 C53.67 13.71 53.34 9.42 53 5 C47.28641609 3.05408675 42.2104874 2.7066031 36.19921875 2.734375 C35.28163284 2.73246155 34.36404694 2.7305481 33.4186554 2.72857666 C31.49158451 2.72722232 29.56450426 2.73086599 27.63745117 2.73925781 C24.67931915 2.75002979 21.72178594 2.7393056 18.76367188 2.7265625 C16.88801949 2.72788302 15.01236748 2.73044319 13.13671875 2.734375 C12.25030197 2.73032654 11.36388519 2.72627808 10.4506073 2.72210693 C5.74184774 2.52801712 5.74184774 2.52801712 2 5 C1.01 5.495 1.01 5.495 0 6 C0 4.02 0 2.04 0 0 Z " fill="#F5F143" transform="translate(340,257)"/>
<path d="M0 0 C6.27 0 12.54 0 19 0 C19 7.26 19 14.52 19 22 C12.73 22 6.46 22 0 22 C0 21.01 0 20.02 0 19 C5.94 19 11.88 19 18 19 C18 13.06 18 7.12 18 1 C12.06 1 6.12 1 0 1 C0 0.67 0 0.34 0 0 Z " fill="#5E5213" transform="translate(244,218)"/>
<path d="M0 0 C0.33 0 0.66 0 1 0 C1 5.94 1 11.88 1 18 C6.28 18 11.56 18 17 18 C17 18.33 17 18.66 17 19 C11.72 19 6.44 19 1 19 C1 24.94 1 30.88 1 37 C6.94 37 12.88 37 19 37 C19 37.33 19 37.66 19 38 C12.73 38 6.46 38 0 38 C0 31.73 0 25.46 0 19 C-5.94 19 -11.88 19 -18 19 C-18 18.67 -18 18.34 -18 18 C-12.06 18 -6.12 18 0 18 C0 12.06 0 6.12 0 0 Z " fill="#E8D826" transform="translate(186,238)"/>
<path d="M0 0 C0.33 0 0.66 0 1 0 C1 5.61 1 11.22 1 17 C5.29 17 9.58 17 14 17 C14 17.66 14 18.32 14 19 C9.71 19 5.42 19 1 19 C1 25.27 1 31.54 1 38 C0.67 38 0.34 38 0 38 C0 31.73 0 25.46 0 19 C-6.27 19 -12.54 19 -19 19 C-19 18.67 -19 18.34 -19 18 C-12.73 18 -6.46 18 0 18 C0 12.06 0 6.12 0 0 Z " fill="#C7B935" transform="translate(205,276)"/>
<path d="M0 0 C12.54 0 25.08 0 38 0 C38 0.33 38 0.66 38 1 C36.98574951 1.02505615 35.97149902 1.0501123 34.92651367 1.07592773 C31.16368973 1.17009645 27.40104631 1.27029405 23.63842773 1.37231445 C22.00988996 1.41562749 20.38130784 1.45730518 18.75268555 1.49731445 C16.41181065 1.55510503 14.07115824 1.61877398 11.73046875 1.68359375 C10.63813179 1.70866249 10.63813179 1.70866249 9.52372742 1.73423767 C6.43833061 1.82467238 3.94828022 2.01723993 1 3 C1 14.55 1 26.1 1 38 C0.67 38 0.34 38 0 38 C0 25.46 0 12.92 0 0 Z " fill="#D3CF5C" transform="translate(148,180)"/>
<path d="M0 0 C6.27 0 12.54 0 19 0 C19 7.92 19 15.84 19 24 C16.89790143 20.84685215 16.7565239 20.13896919 16.8046875 16.55078125 C16.81113281 15.70322266 16.81757813 14.85566406 16.82421875 13.98242188 C16.84097656 13.10134766 16.85773438 12.22027344 16.875 11.3125 C16.88402344 10.41982422 16.89304687 9.52714844 16.90234375 8.60742188 C16.92590085 6.40483334 16.96177156 4.20238275 17 2 C11.72 2 6.44 2 1 2 C0.67 1.34 0.34 0.68 0 0 Z " fill="#E2DC5A" transform="translate(282,333)"/>
<path d="M0 0 C1.98 0 3.96 0 6 0 C5.67 4.29 5.34 8.58 5 13 C3.68 13.33 2.36 13.66 1 14 C0 13 0 13 -0.09765625 10.05859375 C-0.08605469 8.86363281 -0.07445312 7.66867187 -0.0625 6.4375 C-0.05347656 5.23996094 -0.04445313 4.04242188 -0.03515625 2.80859375 C-0.02355469 1.88175781 -0.01195312 0.95492188 0 0 Z " fill="#DBC12B" transform="translate(312,355)"/>
<path d="M0 0 C0.66 0 1.32 0 2 0 C2 6.27 2 12.54 2 19 C-4.27 19 -10.54 19 -17 19 C-17 18.34 -17 17.68 -17 17 C-11.39 17 -5.78 17 0 17 C0 11.39 0 5.78 0 0 Z " fill="#C2B34E" transform="translate(376,218)"/>
<path d="M0 0 C6.93 0 13.86 0 21 0 C21.33 1.32 21.66 2.64 22 4 C10.615 3.505 10.615 3.505 -1 3 C-0.67 2.01 -0.34 1.02 0 0 Z " fill="#F7F042" transform="translate(321,329)"/>
<path d="M0 0 C0.66 0 1.32 0 2 0 C2 5.61 2 11.22 2 17 C7.28 17 12.56 17 18 17 C18 17.66 18 18.32 18 19 C12.06 19 6.12 19 0 19 C0 12.73 0 6.46 0 0 Z " fill="#F7EE4F" transform="translate(302,237)"/>
<path d="M0 0 C0 1.32 0 2.64 0 4 C-6.27 4 -12.54 4 -19 4 C-18.67 3.01 -18.34 2.02 -18 1 C-15.93769732 0.8309093 -13.8751477 0.66482867 -11.8125 0.5 C-10.08966797 0.36078125 -10.08966797 0.36078125 -8.33203125 0.21875 C-5.53927574 0.0354038 -2.79680188 -0.04213637 0 0 Z " fill="#CCBA43" transform="translate(301,310)"/>
<path d="M0 0 C0.66 0 1.32 0 2 0 C2 5.94 2 11.88 2 18 C8.27 18 14.54 18 21 18 C21 18.33 21 18.66 21 19 C14.07 19 7.14 19 0 19 C-0.80950599 14.14296406 -1.00053025 10.89466273 -0.5625 6.125 C-0.46066406 4.97257812 -0.35882813 3.82015625 -0.25390625 2.6328125 C-0.17011719 1.76398438 -0.08632813 0.89515625 0 0 Z " fill="#6B5C13" transform="translate(299,257)"/>
<path d="M0 0 C0.99 0 1.98 0 3 0 C3.05791844 3.12492251 3.09356746 6.24970766 3.125 9.375 C3.14175781 10.26445312 3.15851563 11.15390625 3.17578125 12.0703125 C3.18222656 12.92109375 3.18867188 13.771875 3.1953125 14.6484375 C3.20578613 15.43395996 3.21625977 16.21948242 3.22705078 17.02880859 C3 19 3 19 1 21 C0 20 0 20 -0.11352539 18.05053711 C-0.10567017 16.8015564 -0.10567017 16.8015564 -0.09765625 15.52734375 C-0.09443359 14.62822266 -0.09121094 13.72910156 -0.08789062 12.80273438 C-0.07951172 11.85720703 -0.07113281 10.91167969 -0.0625 9.9375 C-0.05798828 8.98810547 -0.05347656 8.03871094 -0.04882812 7.06054688 C-0.0370011 4.70696935 -0.02052025 2.35351523 0 0 Z " fill="#E8E54F" transform="translate(279,314)"/>
<path d="M0 0 C6.6 0 13.2 0 20 0 C19.67 0.99 19.34 1.98 19 3 C16.20865148 3.19425873 13.41716313 3.38069517 10.625 3.5625 C9.8309375 3.61857422 9.036875 3.67464844 8.21875 3.73242188 C2.2265625 4.11328125 2.2265625 4.11328125 0 3 C0 2.01 0 1.02 0 0 Z " fill="#F9F051" transform="translate(302,276)"/>
<path d="M0 0 C5.94 0 11.88 0 18 0 C18 6.27 18 12.54 18 19 C12.06 19 6.12 19 0 19 C0 18.67 0 18.34 0 18 C5.28 17.67 10.56 17.34 16 17 C15.67 16.34 15.34 15.68 15 15 C15.33 14.34 15.66 13.68 16 13 C16.22858114 10.9625237 16.41024278 8.91959697 16.5625 6.875 C16.706875 4.93625 16.85125 2.9975 17 1 C11.39 1 5.78 1 0 1 C0 0.67 0 0.34 0 0 Z " fill="#181309" transform="translate(72,295)"/>
<path d="M0 0 C0.66 0 1.32 0 2 0 C2 5.94 2 11.88 2 18 C-4.27 18 -10.54 18 -17 18 C-17 17.67 -17 17.34 -17 17 C-8.585 16.505 -8.585 16.505 0 16 C0 10.72 0 5.44 0 0 Z " fill="#F7EF52" transform="translate(241,219)"/>
<path d="M0 0 C0.99 0 1.98 0 3 0 C3 5.61 3 11.22 3 17 C3.99 17.33 4.98 17.66 6 18 C5.67 18.33 5.34 18.66 5 19 C3.35 19 1.7 19 0 19 C0 12.73 0 6.46 0 0 Z " fill="#F9F247" transform="translate(168,218)"/>
<path d="M0 0 C0.33 0 0.66 0 1 0 C2.21379503 4.70345575 2.07202527 9.17430687 2 14 C6.29 14 10.58 14 15 14 C15.33 14.66 15.66 15.32 16 16 C10.72 16 5.44 16 0 16 C0 10.72 0 5.44 0 0 Z " fill="#D7C037" transform="translate(303,315)"/>
<path d="M0 0 C0.33 0 0.66 0 1 0 C2.23107198 5.69370789 2.07070544 11.20215428 2 17 C7.28 17.33 12.56 17.66 18 18 C18 18.33 18 18.66 18 19 C12.06 19 6.12 19 0 19 C0 12.73 0 6.46 0 0 Z " fill="#D5C13F" transform="translate(264,218)"/>
<path d="M0 0 C0.99 0.33 1.98 0.66 3 1 C4.26264601 5.29299643 3.62950412 7.87831311 2 12 C4.31 12 6.62 12 9 12 C9 12.66 9 13.32 9 14 C4.545 14.495 4.545 14.495 0 15 C0 10.05 0 5.1 0 0 Z " fill="#DBC71F" transform="translate(263,202)"/>
<path d="M0 0 C1.18916016 0.01353516 1.18916016 0.01353516 2.40234375 0.02734375 C4.35169281 0.05082988 6.30088575 0.08669863 8.25 0.125 C8.25 1.115 8.25 2.105 8.25 3.125 C-2.145 3.62 -2.145 3.62 -12.75 4.125 C-12.75 3.465 -12.75 2.805 -12.75 2.125 C-8.77389214 -0.58986934 -4.61098023 -0.09940753 0 0 Z " fill="#F5EF4A" transform="translate(196.75,290.875)"/>
<path d="M0 0 C3.20825562 -0.05849554 6.41637233 -0.09376162 9.625 -0.125 C10.52863281 -0.14175781 11.43226562 -0.15851563 12.36328125 -0.17578125 C17.32750152 -0.21201643 21.34411907 0.03555854 26 2 C26 2.33 26 2.66 26 3 C13.13 2.505 13.13 2.505 0 2 C0 1.34 0 0.68 0 0 Z " fill="#F6F048" transform="translate(110,311)"/>
<path d="M0 0 C6.6 0.33 13.2 0.66 20 1 C20.33 1.66 20.66 2.32 21 3 C14.07 3 7.14 3 0 3 C0 2.01 0 1.02 0 0 Z " fill="#EEEA53" transform="translate(243,215)"/>
<path d="M0 0 C0.66 0.33 1.32 0.66 2 1 C1.85936865 3.29199177 1.71234057 5.58359186 1.5625 7.875 C1.48128906 9.15117187 1.40007812 10.42734375 1.31640625 11.7421875 C1 15 1 15 0 17 C-4.95 17 -9.9 17 -15 17 C-15 16.67 -15 16.34 -15 16 C-10.05 15.34 -5.1 14.68 0 14 C0 9.38 0 4.76 0 0 Z " fill="#D5BF38" transform="translate(394,333)"/>
<path d="M0 0 C6.27 0 12.54 0 19 0 C19 5.94 19 11.88 19 18 C18.67 18 18.34 18 18 18 C18 12.39 18 6.78 18 1 C14.3803125 1.185625 14.3803125 1.185625 10.6875 1.375 C9.93170654 1.40899902 9.17591309 1.44299805 8.3972168 1.47802734 C4.78890166 1.69161718 3.06946543 1.95368971 0 4 C0 2.68 0 1.36 0 0 Z " fill="#C6B21E" transform="translate(206,238)"/>
<path d="M0 0 C0.66 0 1.32 0 2 0 C2 0.66 2 1.32 2 2 C7.28 2 12.56 2 18 2 C18 2.66 18 3.32 18 4 C12.06 4 6.12 4 0 4 C0 2.68 0 1.36 0 0 Z " fill="#FAEE40" transform="translate(283,233)"/>
<path d="M0 0 C0.66 0 1.32 0 2 0 C2.06058594 0.83144531 2.12117188 1.66289062 2.18359375 2.51953125 C2.26738281 3.60621094 2.35117188 4.69289063 2.4375 5.8125 C2.55931641 7.43091797 2.55931641 7.43091797 2.68359375 9.08203125 C2.90212461 12.05989905 2.90212461 12.05989905 4 15 C10.93 15.495 10.93 15.495 18 16 C18 16.33 18 16.66 18 17 C12.39 17 6.78 17 1 17 C0.67 11.39 0.34 5.78 0 0 Z " fill="#D3C03D" transform="translate(91,295)"/>
<path d="M0 0 C4.29 0 8.58 0 13 0 C11.68 0.99 10.36 1.98 9 3 C6.25 2.1875 6.25 2.1875 4 1 C4.33 1.99 4.66 2.98 5 4 C2.525 5.485 2.525 5.485 0 7 C0 4.69 0 2.38 0 0 Z " fill="#D6C41C" transform="translate(187,257)"/>
<path d="M0 0 C4.29 0 8.58 0 13 0 C13 0.33 13 0.66 13 1 C9.7 1 6.4 1 3 1 C2.34 3.31 1.68 5.62 1 8 C0.67 8 0.34 8 0 8 C0 5.36 0 2.72 0 0 Z " fill="#D9C31D" transform="translate(359,219)"/>
<path d="M0 0 C2.97 0 5.94 0 9 0 C9 3.96 9 7.92 9 12 C8.67 12 8.34 12 8 12 C7.67 9.03 7.34 6.06 7 3 C4.69 2.34 2.38 1.68 0 1 C0 0.67 0 0.34 0 0 Z " fill="#130500" transform="translate(196,372)"/>
<path d="M0 0 C0.33 0 0.66 0 1 0 C1 2.31 1 4.62 1 7 C-1.31 7 -3.62 7 -6 7 C-5.02433888 5.83040013 -4.044375 4.66438823 -3.0625 3.5 C-2.51722656 2.8503125 -1.97195313 2.200625 -1.41015625 1.53125 C-0.71212891 0.77328125 -0.71212891 0.77328125 0 0 Z " fill="#FBEE3A" transform="translate(300,364)"/>
<path d="" fill="#FFFFFF" transform="translate(0,0)"/>
<path d="" fill="#FFFFFF" transform="translate(0,0)"/>
<path d="" fill="#FFFFFF" transform="translate(0,0)"/>
<path d="" fill="#FFFFFF" transform="translate(0,0)"/>
<path d="" fill="#FFFFFF" transform="translate(0,0)"/>
<path d="" fill="#FFFFFF" transform="translate(0,0)"/>
<path d="" fill="#FFFFFF" transform="translate(0,0)"/>
<path d="" fill="#FFFFFF" transform="translate(0,0)"/>
<path d="" fill="#FFFFFF" transform="translate(0,0)"/>
<path d="" fill="#FFFFFF" transform="translate(0,0)"/>
<path d="" fill="#FFFFFF" transform="translate(0,0)"/>
<path d="" fill="#FFFFFF" transform="translate(0,0)"/>
<path d="" fill="#FFFFFF" transform="translate(0,0)"/>
<path d="" fill="#FFFFFF" transform="translate(0,0)"/>
<path d="" fill="#FFFFFF" transform="translate(0,0)"/>
<path d="" fill="#FFFFFF" transform="translate(0,0)"/>
<path d="" fill="#FFFFFF" transform="translate(0,0)"/>
<path d="" fill="#FFFFFF" transform="translate(0,0)"/>
<path d="" fill="#FFFFFF" transform="translate(0,0)"/>
<path d="" fill="#FFFFFF" transform="translate(0,0)"/>
<path d="" fill="#FFFFFF" transform="translate(0,0)"/>
<path d="" fill="#FFFFFF" transform="translate(0,0)"/>
<path d="" fill="#FFFFFF" transform="translate(0,0)"/>
<path d="" fill="#FFFFFF" transform="translate(0,0)"/>
<path d="" fill="#FFFFFF" transform="translate(0,0)"/>
<path d="" fill="#FFFFFF" transform="translate(0,0)"/>
<path d="" fill="#FFFFFF" transform="translate(0,0)"/>
<path d="" fill="#FFFFFF" transform="translate(0,0)"/>
<path d="" fill="#FFFFFF" transform="translate(0,0)"/>
<path d="" fill="#FFFFFF" transform="translate(0,0)"/>
<path d="" fill="#FFFFFF" transform="translate(0,0)"/>
<path d="" fill="#FFFFFF" transform="translate(0,0)"/>
<path d="" fill="#FFFFFF" transform="translate(0,0)"/>
<path d="" fill="#FFFFFF" transform="translate(0,0)"/>
<path d="" fill="#FFFFFF" transform="translate(0,0)"/>
<path d="" fill="#FFFFFF" transform="translate(0,0)"/>
<path d="" fill="#FFFFFF" transform="translate(0,0)"/>
<path d="" fill="#FFFFFF" transform="translate(0,0)"/>
<path d="" fill="#FFFFFF" transform="translate(0,0)"/>
<path d="" fill="#FFFFFF" transform="translate(0,0)"/>
<path d="" fill="#FFFFFF" transform="translate(0,0)"/>
<path d="" fill="#FFFFFF" transform="translate(0,0)"/>
<path d="" fill="#FFFFFF" transform="translate(0,0)"/>
<path d="" fill="#FFFFFF" transform="translate(0,0)"/>
<path d="" fill="#FFFFFF" transform="translate(0,0)"/>
<path d="" fill="#FFFFFF" transform="translate(0,0)"/>
<path d="" fill="#FFFFFF" transform="translate(0,0)"/>
<path d="" fill="#FFFFFF" transform="translate(0,0)"/>
<path d="" fill="#FFFFFF" transform="translate(0,0)"/>
<path d="" fill="#FFFFFF" transform="translate(0,0)"/>
<path d="" fill="#FFFFFF" transform="translate(0,0)"/>
<path d="" fill="#FFFFFF" transform="translate(0,0)"/>
</svg>
